<svg width="56" height="56" viewBox="0 0 56 56" fill="none" xmlns="http://www.w3.org/2000/svg">
<circle cx="28" cy="28" r="28" fill="#05B766" fill-opacity="0.04"/>
<path fill-rule="evenodd" clip-rule="evenodd" d="M34.607 22.2353V24.3971C36.212 24.3971 37.5251 25.6941 37.5251 27.2794V37.3676C37.5251 38.9529 36.212 40.25 34.607 40.25H21.4755C19.8705 40.25 18.5574 38.9529 18.5574 37.3676V27.2794C18.5574 25.6941 19.8705 24.3971 21.4755 24.3971V22.2353C21.4755 18.6324 24.3936 15.75 28.0413 15.75C31.6889 15.75 34.607 18.6324 34.607 22.2353ZM22.9346 22.2353V22.9559V24.3971H33.148V22.2353C33.148 19.4971 30.8135 17.1912 28.0413 17.1912C25.269 17.1912 22.9346 19.4971 22.9346 22.2353ZM36.0661 37.3676C36.0661 38.2324 35.4824 38.8088 34.607 38.8088H21.4755C20.6001 38.8088 20.0164 38.2324 20.0164 37.3676V27.2794C20.0164 26.4147 20.6001 25.8382 21.4755 25.8382H34.607C35.4824 25.8382 36.0661 26.4147 36.0661 27.2794V37.3676ZM28.8318 31.3828V29.1065C28.8318 28.6797 28.5156 28.3952 28.0413 28.3952C27.5669 28.3952 27.2507 28.6797 27.2507 29.1065V31.3828C25.9859 31.8096 25.3534 32.9478 25.8278 34.0859C26.3021 35.2241 27.5669 35.7932 28.8318 35.3664C30.0966 34.9396 30.7291 33.8014 30.2547 32.6632C30.0966 32.0942 29.4642 31.5251 28.8318 31.3828ZM28.0413 34.0859C27.5669 34.0859 27.2507 33.8014 27.2507 33.3746C27.2507 32.9478 27.5669 32.6632 28.0413 32.6632C28.5156 32.6632 28.8318 32.9478 28.8318 33.3746C28.8318 33.8014 28.5156 34.0859 28.0413 34.0859Z" fill="#05B766"/>
</svg>
