<svg width="56" height="56" viewBox="0 0 56 56" fill="none" xmlns="http://www.w3.org/2000/svg">
<circle cx="28" cy="28" r="28" fill="#05B766" fill-opacity="0.04"/>
<path fill-rule="evenodd" clip-rule="evenodd" d="M22.6875 20.1538V18.683C22.6875 17.0615 23.9728 15.75 25.5644 15.75H35.6231C37.2106 15.75 38.5 17.0657 38.5 18.6835V33.3677C38.5 34.9894 37.2148 36.3012 35.6231 36.3012H34.1875V37.7715C34.1875 39.3933 32.9023 40.705 31.3106 40.705H21.2519C19.664 40.705 18.375 39.3906 18.375 37.772V23.0868C18.375 21.4653 19.6603 20.1538 21.2519 20.1538H22.6875ZM32.75 37.7715V23.0873C32.75 22.2805 32.1044 21.6218 31.3106 21.6218H21.2519C20.4539 21.6218 19.8125 22.2763 19.8125 23.0868V37.772C19.8125 38.5794 20.4575 39.2371 21.2519 39.2371H31.3106C32.1085 39.2371 32.75 38.5824 32.75 37.7715ZM34.1875 34.8332H35.6231C36.421 34.8332 37.0625 34.1785 37.0625 33.3677V18.6835C37.0625 17.8767 36.4169 17.2179 35.6231 17.2179H25.5644C24.7664 17.2179 24.125 17.8725 24.125 18.683V20.1538H31.3106C32.8981 20.1538 34.1875 21.4696 34.1875 23.0873V34.8332ZM24.325 27.9262C24.325 26.6239 25.4026 25.5536 26.7137 25.5536C28.0249 25.5536 29.1025 26.6239 29.1025 27.9262C29.1025 29.2285 28.0249 30.2988 26.7137 30.2988C25.4026 30.2988 24.325 29.2285 24.325 27.9262ZM23.2053 31.9194C24.1385 31.3201 25.3643 30.9767 26.7137 30.9767C28.0632 30.9767 29.289 31.3201 30.2222 31.9194C31.1556 32.5187 31.8325 33.4169 31.8325 34.4721V35.0441C31.8325 35.3991 31.5074 35.722 31.15 35.722H22.2775C21.9201 35.722 21.595 35.3991 21.595 35.0441V34.4721C21.595 33.4169 22.2719 32.5187 23.2053 31.9194Z" fill="#05B766"/>
</svg>
