<?xml version="1.0" encoding="utf-8"?>
<!-- Generator: Adobe Illustrator 27.1.1, SVG Export Plug-In . SVG Version: 6.00 Build 0)  -->
<svg version="1.1" id="Layer_1" xmlns="http://www.w3.org/2000/svg" xmlns:xlink="http://www.w3.org/1999/xlink" x="0px" y="0px"
	 viewBox="0 0 512 512" style="enable-background:new 0 0 512 512;" xml:space="preserve">
<style type="text/css">
	.st0{fill:#008C44;}
	.st1{fill:#F47920;}
	.st2{fill:#6D6E71;}
	.st3{fill:#414042;}
</style>
<g>
	<polygon class="st0" points="486.91,192.77 512,242.65 459.27,292.53 	"/>
	<polygon class="st1" points="469.33,192.77 494.4,242.65 441.64,292.53 	"/>
	<path class="st2" d="M112.44,265.15c-1.93,4.06-5.82,6.99-10.46,7.58h-3.44h-67.4l5.7-20.4h52.01h16.04h3.47
		c2.61,0.65,4.65,2.71,5.25,5.32c0.08,0.59,0.13,1.18,0.13,1.79c0,0.31-0.02,0.62-0.04,0.92c-0.01,0.13-0.01,0.25-0.02,0.38
		L112.44,265.15z M47.97,212.42h51.96h16.27h3.43c1.97,0.48,3.61,1.76,4.57,3.48c0.35,1.2,0.54,2.47,0.54,3.77
		c0,0.71-0.07,1.39-0.17,2.07l-0.19,0.65l-0.69,2.49c-1.84,4.34-5.91,7.5-10.77,8.09h-3.3H42.23L47.97,212.42z M122.6,289.25
		c2.46-1.89,4.08-4.24,4.86-7.03l8.34-29.89c0.76-2.72,0.43-5-0.99-6.84c-1.42-1.84-3.52-2.76-6.3-2.76c2.77,0,5.4-0.94,7.87-2.84
		c2.45-1.89,4.07-4.2,4.83-6.91l8.33-29.85c0.81-2.9,0.54-5.3-0.81-7.2c-1.35-1.9-3.47-2.85-6.35-2.85H33.58L5.94,292.09h108.8
		C117.51,292.09,120.14,291.14,122.6,289.25"/>
	<polygon class="st2" points="263.53,193.15 252.59,232.93 174.1,232.93 185.04,193.15 165.53,193.15 138.37,291.84 157.89,291.84 
		168.79,252.24 247.27,252.24 236.38,291.84 255.9,291.84 283.05,193.15 	"/>
	<polygon class="st2" points="288.73,292.16 269.08,292.16 296.4,193.49 316.04,193.49 	"/>
	<polygon class="st2" points="452.67,193.4 371.15,262.49 342.71,215.23 329.57,193.4 329.22,193.4 323.03,215.82 302.07,291.78 
		321.58,291.78 336.28,238.54 367.41,291.91 418.95,244.67 406.03,291.78 425.55,291.78 444.6,222.73 452.7,193.4 	"/>
	<path class="st3" d="M4.48,310.2h0.96c1.2,0,2.08-0.16,2.66-0.47c0.57-0.31,0.94-0.83,1.12-1.56c0.19-0.8,0.09-1.36-0.29-1.69
		c-0.38-0.33-1.21-0.48-2.48-0.48H5.49L4.48,310.2z M2.94,316.65h0.87c0.88,0,1.54-0.03,1.99-0.1c0.45-0.07,0.83-0.18,1.12-0.35
		c0.35-0.19,0.66-0.45,0.9-0.78c0.25-0.33,0.42-0.68,0.51-1.08c0.11-0.47,0.1-0.87-0.02-1.22c-0.12-0.34-0.35-0.61-0.69-0.8
		c-0.21-0.12-0.47-0.2-0.76-0.25c-0.3-0.05-0.69-0.08-1.2-0.08H4.92H4.06L2.94,316.65z M0,318.64l3.49-14.6h3.9
		c1.11,0,1.92,0.06,2.42,0.17c0.51,0.11,0.91,0.3,1.22,0.56c0.4,0.33,0.67,0.77,0.8,1.31c0.13,0.53,0.12,1.13-0.03,1.78
		c-0.2,0.78-0.53,1.43-1.04,1.95c-0.51,0.52-1.15,0.88-1.92,1.09c0.87,0.13,1.49,0.52,1.85,1.16c0.37,0.64,0.43,1.45,0.2,2.43
		c-0.14,0.59-0.39,1.16-0.73,1.68c-0.35,0.54-0.76,0.99-1.26,1.36c-0.52,0.4-1.11,0.69-1.77,0.86c-0.67,0.16-1.74,0.25-3.22,0.25H0z
		"/>
	<polygon class="st3" points="19,318.64 22.5,304.04 25.01,304.04 23.72,309.42 31.32,309.42 32.61,304.04 35.13,304.04 
		31.63,318.64 29.12,318.64 30.82,311.55 23.21,311.55 21.51,318.64 	"/>
	<path class="st3" d="M46.35,312.9h4.31l-0.79-3.33c-0.04-0.21-0.08-0.45-0.11-0.74c-0.03-0.27-0.06-0.58-0.07-0.92
		c-0.17,0.32-0.32,0.62-0.48,0.89c-0.16,0.28-0.32,0.53-0.47,0.76L46.35,312.9z M51.92,318.64l-0.85-3.76h-6.13l-2.7,3.76h-2.64
		l11.12-15.18l3.85,15.18H51.92z"/>
	<path class="st3" d="M67.09,310.26h0.45c1.33,0,2.25-0.14,2.76-0.43c0.51-0.3,0.85-0.82,1.03-1.56c0.19-0.81,0.09-1.38-0.3-1.7
		c-0.39-0.33-1.22-0.49-2.48-0.49h-0.45L67.09,310.26z M66.49,312.11l-1.57,6.53h-2.35l3.49-14.6h3.5c1.03,0,1.81,0.06,2.35,0.19
		c0.54,0.12,0.97,0.34,1.3,0.63c0.39,0.35,0.66,0.81,0.78,1.36c0.13,0.56,0.11,1.17-0.04,1.84c-0.28,1.17-0.8,2.08-1.56,2.75
		c-0.75,0.66-1.73,1.06-2.93,1.19l3.74,6.64h-2.84l-3.58-6.53H66.49z"/>
	<path class="st3" d="M85.85,312.9h4.31l-0.79-3.33c-0.04-0.21-0.08-0.45-0.11-0.74c-0.03-0.27-0.06-0.58-0.07-0.92
		c-0.17,0.32-0.33,0.62-0.48,0.89c-0.17,0.28-0.33,0.53-0.47,0.76L85.85,312.9z M91.43,318.64l-0.85-3.76h-6.13l-2.7,3.76h-2.64
		l11.12-15.18l3.84,15.18H91.43z"/>
	<polygon class="st3" points="108.9,306.05 105.88,318.64 103.37,318.64 106.38,306.05 102.27,306.05 102.75,304.04 113.47,304.04 
		112.99,306.05 	"/>
	<polygon class="st3" points="131.53,318.64 135.02,304.04 137.54,304.04 134.04,318.64 	"/>
	<path class="st3" d="M144.19,318.64l3.63-15.18l7.69,8.93c0.21,0.25,0.42,0.52,0.62,0.8c0.21,0.29,0.42,0.61,0.63,0.97l2.42-10.12
		h2.33l-3.63,15.17l-7.85-9.09c-0.21-0.25-0.4-0.5-0.59-0.78c-0.19-0.28-0.36-0.56-0.51-0.86l-2.43,10.16H144.19z"/>
	<polygon class="st3" points="176.1,306.05 173.09,318.64 170.58,318.64 173.59,306.05 169.48,306.05 169.97,304.04 180.67,304.04 
		180.2,306.05 	"/>
	<polygon class="st3" points="185.64,318.64 189.13,304.04 197.76,304.04 197.28,306.05 191.16,306.05 190.28,309.72 196.4,309.72 
		195.9,311.8 189.78,311.8 188.65,316.52 194.77,316.52 194.27,318.64 	"/>
	<path class="st3" d="M208.2,310.26h0.45c1.33,0,2.25-0.14,2.76-0.43c0.51-0.3,0.85-0.82,1.03-1.56c0.19-0.81,0.09-1.38-0.3-1.7
		c-0.39-0.33-1.22-0.49-2.48-0.49h-0.45L208.2,310.26z M207.6,312.11l-1.57,6.53h-2.35l3.49-14.6h3.5c1.03,0,1.81,0.06,2.35,0.19
		c0.54,0.12,0.97,0.34,1.3,0.63c0.39,0.35,0.66,0.81,0.78,1.36c0.13,0.56,0.11,1.17-0.04,1.84c-0.28,1.17-0.8,2.08-1.56,2.75
		c-0.75,0.66-1.73,1.06-2.93,1.19l3.74,6.64h-2.84l-3.58-6.53H207.6z"/>
	<polygon class="st3" points="222.33,318.64 225.82,304.04 234.45,304.04 233.97,306.05 227.85,306.05 226.99,309.69 233.1,309.69 
		232.6,311.78 226.49,311.78 224.84,318.64 	"/>
	<path class="st3" d="M244.08,312.9h4.31l-0.79-3.33c-0.04-0.21-0.08-0.45-0.11-0.74c-0.03-0.27-0.06-0.58-0.07-0.92
		c-0.16,0.32-0.32,0.62-0.48,0.89c-0.16,0.28-0.32,0.53-0.47,0.76L244.08,312.9z M249.66,318.64l-0.85-3.76h-6.13l-2.69,3.76h-2.65
		l11.12-15.18l3.85,15.18H249.66z"/>
	<path class="st3" d="M274.98,307.59c-0.58-0.57-1.22-1-1.95-1.29c-0.72-0.28-1.52-0.43-2.39-0.43c-1.69,0-3.2,0.52-4.5,1.54
		c-1.3,1.02-2.15,2.35-2.54,3.98c-0.38,1.57-0.17,2.87,0.61,3.9c0.79,1.03,1.97,1.54,3.54,1.54c0.91,0,1.82-0.16,2.72-0.47
		c0.9-0.3,1.81-0.76,2.72-1.39l-0.65,2.69c-0.79,0.45-1.61,0.8-2.45,1.03c-0.85,0.22-1.74,0.34-2.67,0.34
		c-1.19,0-2.23-0.19-3.15-0.55c-0.92-0.37-1.67-0.9-2.26-1.62c-0.58-0.7-0.96-1.52-1.15-2.47c-0.17-0.94-0.13-1.96,0.12-3.03
		c0.26-1.07,0.7-2.07,1.33-3.02c0.63-0.94,1.42-1.77,2.35-2.48c0.94-0.71,1.95-1.25,3.03-1.63c1.08-0.37,2.2-0.55,3.36-0.55
		c0.9,0,1.74,0.12,2.51,0.38c0.76,0.25,1.47,0.62,2.13,1.13L274.98,307.59z"/>
	<polygon class="st3" points="281.98,318.64 285.47,304.04 294.1,304.04 293.62,306.05 287.5,306.05 286.63,309.72 292.75,309.72 
		292.25,311.8 286.13,311.8 285,316.52 291.12,316.52 290.61,318.64 	"/>
	<polygon class="st3" points="313.09,318.64 316.58,304.04 325.21,304.04 324.73,306.05 318.61,306.05 317.74,309.69 323.86,309.69 
		323.36,311.78 317.24,311.78 315.6,318.64 	"/>
	<path class="st3" d="M345.94,311.37c0.18-0.74,0.2-1.44,0.08-2.1c-0.13-0.66-0.39-1.26-0.8-1.77c-0.4-0.51-0.91-0.91-1.53-1.18
		c-0.62-0.28-1.31-0.42-2.08-0.42c-0.75,0-1.51,0.14-2.26,0.42c-0.75,0.27-1.46,0.66-2.12,1.19c-0.66,0.51-1.21,1.1-1.65,1.76
		c-0.44,0.66-0.75,1.37-0.93,2.11c-0.17,0.74-0.2,1.44-0.07,2.1c0.12,0.66,0.39,1.25,0.8,1.76c0.41,0.52,0.93,0.92,1.54,1.19
		c0.62,0.28,1.31,0.42,2.08,0.42c0.75,0,1.5-0.14,2.25-0.42c0.75-0.26,1.45-0.67,2.12-1.19c0.66-0.52,1.21-1.11,1.65-1.77
		C345.46,312.8,345.78,312.1,345.94,311.37 M348.57,311.37c-0.25,1.04-0.69,2.02-1.33,2.94c-0.63,0.92-1.43,1.75-2.39,2.47
		c-0.97,0.73-2.01,1.28-3.09,1.67c-1.09,0.38-2.19,0.58-3.29,0.58c-1.11,0-2.13-0.2-3.04-0.58c-0.92-0.39-1.68-0.94-2.28-1.66
		c-0.62-0.72-1.02-1.54-1.21-2.46c-0.19-0.92-0.16-1.9,0.1-2.95c0.25-1.04,0.69-2.02,1.32-2.95c0.63-0.93,1.43-1.75,2.39-2.49
		c0.95-0.72,1.98-1.27,3.07-1.65c1.1-0.38,2.2-0.57,3.31-0.57s2.12,0.19,3.03,0.57c0.9,0.38,1.66,0.93,2.28,1.65
		c0.61,0.74,1.01,1.58,1.2,2.51C348.84,309.36,348.81,310.33,348.57,311.37"/>
	<path class="st3" d="M360.77,310.26h0.45c1.33,0,2.25-0.14,2.75-0.43c0.51-0.3,0.85-0.82,1.03-1.56c0.19-0.81,0.1-1.38-0.3-1.7
		c-0.39-0.33-1.22-0.49-2.48-0.49h-0.45L360.77,310.26z M360.16,312.11l-1.57,6.53h-2.35l3.49-14.6h3.5c1.03,0,1.81,0.06,2.35,0.19
		c0.54,0.12,0.97,0.34,1.31,0.63c0.39,0.35,0.65,0.81,0.78,1.36c0.13,0.56,0.11,1.17-0.04,1.84c-0.28,1.17-0.8,2.08-1.56,2.75
		c-0.75,0.66-1.74,1.06-2.94,1.19l3.74,6.64h-2.84l-3.58-6.53H360.16z"/>
	<path class="st3" d="M402.29,311.43c0-0.11,0.03-0.42,0.09-0.94c0.04-0.42,0.08-0.78,0.1-1.06c-0.14,0.33-0.31,0.67-0.51,0.99
		c-0.2,0.34-0.42,0.67-0.69,1.02l-5.9,7.78l-2.15-7.94c-0.1-0.33-0.16-0.65-0.21-0.95c-0.05-0.31-0.09-0.61-0.11-0.91
		c-0.08,0.3-0.18,0.63-0.31,0.96c-0.12,0.34-0.28,0.69-0.45,1.06l-3.38,7.19h-2.31l7.29-15.22l2.36,9.22
		c0.03,0.15,0.08,0.39,0.15,0.73c0.06,0.34,0.13,0.75,0.22,1.25c0.25-0.42,0.61-0.95,1.08-1.6c0.13-0.17,0.22-0.3,0.29-0.4
		l6.66-9.21l0.1,15.22h-2.33L402.29,311.43z"/>
	<path class="st3" d="M428.12,311.37c0.17-0.74,0.2-1.44,0.08-2.1c-0.13-0.66-0.4-1.26-0.81-1.77c-0.4-0.51-0.91-0.91-1.53-1.18
		c-0.62-0.28-1.31-0.42-2.07-0.42c-0.76,0-1.52,0.14-2.27,0.42c-0.75,0.27-1.46,0.66-2.12,1.19c-0.66,0.51-1.21,1.1-1.65,1.76
		c-0.44,0.66-0.75,1.37-0.93,2.11c-0.17,0.74-0.2,1.44-0.07,2.1c0.12,0.66,0.39,1.25,0.8,1.76c0.4,0.52,0.92,0.92,1.54,1.19
		c0.61,0.28,1.31,0.42,2.08,0.42c0.75,0,1.49-0.14,2.24-0.42c0.75-0.26,1.45-0.67,2.12-1.19c0.66-0.52,1.21-1.11,1.66-1.77
		C427.64,312.8,427.95,312.1,428.12,311.37 M430.74,311.37c-0.25,1.04-0.69,2.02-1.33,2.94c-0.63,0.92-1.42,1.75-2.39,2.47
		c-0.97,0.73-2,1.28-3.09,1.67c-1.09,0.38-2.18,0.58-3.29,0.58c-1.11,0-2.13-0.2-3.04-0.58c-0.92-0.39-1.68-0.94-2.27-1.66
		c-0.62-0.72-1.02-1.54-1.21-2.46c-0.19-0.92-0.16-1.9,0.09-2.95c0.25-1.04,0.69-2.02,1.32-2.95c0.63-0.93,1.43-1.75,2.39-2.49
		c0.95-0.72,1.99-1.27,3.08-1.65c1.09-0.38,2.2-0.57,3.31-0.57s2.12,0.19,3.03,0.57c0.9,0.38,1.67,0.93,2.29,1.65
		c0.61,0.74,1.01,1.58,1.2,2.51C431.02,309.36,430.99,310.33,430.74,311.37"/>
	<path class="st3" d="M438.42,318.64l3.63-15.18l7.7,8.93c0.2,0.25,0.41,0.52,0.62,0.8c0.2,0.29,0.42,0.61,0.63,0.97l2.43-10.12
		h2.32l-3.62,15.17l-7.85-9.09c-0.21-0.25-0.4-0.5-0.59-0.78c-0.19-0.28-0.35-0.56-0.51-0.86l-2.43,10.16H438.42z"/>
	<polygon class="st3" points="462.33,318.64 465.82,304.04 474.45,304.04 473.97,306.05 467.85,306.05 466.98,309.72 473.09,309.72 
		472.59,311.8 466.48,311.8 465.35,316.52 471.46,316.52 470.96,318.64 	"/>
	<path class="st3" d="M483.7,318.64l1.6-6.68l-3.31-7.92h2.64l2.06,4.95c0.04,0.13,0.11,0.3,0.17,0.5c0.06,0.21,0.13,0.43,0.2,0.67
		c0.15-0.23,0.3-0.45,0.47-0.66c0.16-0.2,0.31-0.39,0.48-0.57l4.5-4.89h2.52l-7.22,7.92l-1.61,6.68H483.7z"/>
</g>
</svg>
