<svg width="88" height="88" viewBox="0 0 88 88" fill="none" xmlns="http://www.w3.org/2000/svg">
<g filter="url(#filter0_d_1576_3700)">
<circle cx="44" cy="44" r="26" fill="#6E3989" fill-opacity="0.04"/>
<circle cx="44" cy="44" r="26" fill="#F9F7FA"/>
<circle cx="44" cy="44" r="26" stroke="#6E3989" stroke-linejoin="round"/>
</g>
<path d="M54.68 48.7205C53.04 48.7205 51.4533 48.4504 49.9733 47.9642C49.5067 47.8021 48.9867 47.9237 48.6267 48.2883L46.5333 50.949C42.76 49.1257 39.2267 45.6817 37.3467 41.7244L39.9467 39.4824C40.3067 39.1042 40.4133 38.5775 40.2667 38.1047C39.7733 36.6056 39.52 34.9983 39.52 33.3371C39.52 32.6078 38.92 32 38.2 32H33.5867C32.8667 32 32 32.3241 32 33.3371C32 45.8842 42.3067 56.3109 54.68 56.3109C55.6267 56.3109 56 55.4601 56 54.7172V50.0576C56 49.3283 55.4 48.7205 54.68 48.7205Z" fill="#663977"/>
<defs>
<filter id="filter0_d_1576_3700" x="0.5" y="0.5" width="87" height="87" filterUnits="userSpaceOnUse" color-interpolation-filters="sRGB">
<feFlood flood-opacity="0" result="BackgroundImageFix"/>
<feColorMatrix in="SourceAlpha" type="matrix" values="0 0 0 0 0 0 0 0 0 0 0 0 0 0 0 0 0 0 127 0" result="hardAlpha"/>
<feOffset/>
<feGaussianBlur stdDeviation="8.5"/>
<feColorMatrix type="matrix" values="0 0 0 0 0.976471 0 0 0 0 0.968627 0 0 0 0 0.980392 0 0 0 1 0"/>
<feBlend mode="normal" in2="BackgroundImageFix" result="effect1_dropShadow_1576_3700"/>
<feBlend mode="normal" in="SourceGraphic" in2="effect1_dropShadow_1576_3700" result="shape"/>
</filter>
</defs>
</svg>
