<svg width="19" height="14" viewBox="0 0 19 14" fill="none" xmlns="http://www.w3.org/2000/svg">
<path fill-rule="evenodd" clip-rule="evenodd" d="M0.299805 2.67713C0.299805 1.59643 1.1998 0.712219 2.2998 0.712219H16.6998C17.7998 0.712219 18.6998 1.59643 18.6998 2.67713V11.3227C18.6998 12.4034 17.7998 13.2877 16.6998 13.2877H2.2998C1.1998 13.2877 0.299805 12.4034 0.299805 11.3227V2.67713ZM16.6996 1.49811H2.29961C1.64961 1.49811 1.09961 2.03846 1.09961 2.67706V11.3227C1.09961 11.9613 1.64961 12.5016 2.29961 12.5016H16.6996C17.3496 12.5016 17.8996 11.9613 17.8996 11.3227V2.67706C17.8996 2.03846 17.3496 1.49811 16.6996 1.49811ZM3.5002 3.46313C3.0502 3.46313 2.7002 3.80699 2.7002 4.2491V5.42805C2.7002 5.87015 3.0502 6.21401 3.5002 6.21401H5.1002C5.5502 6.21401 5.9002 5.87015 5.9002 5.42805V4.2491C5.9002 3.80699 5.5502 3.46313 5.1002 3.46313H3.5002ZM5.1 4.24911H3.5V5.42806H5.1V4.24911ZM10.3578 4C10.1578 4.04912 9.95777 4.24561 10.0078 4.44211C10.0578 4.6386 10.2578 4.78596 10.4578 4.78596H15.6578C15.8078 4.78596 15.9578 4.73684 16.0078 4.58947C16.0578 4.49123 16.0578 4.29474 16.0078 4.19649C15.9578 4.09825 15.8078 4 15.6578 4H10.4578H10.4078H10.3578ZM2.64937 8.62103C2.59937 8.42454 2.79937 8.22805 2.99937 8.17892H3.04937H3.09937H5.09937C5.24937 8.17892 5.39937 8.27717 5.44937 8.37542C5.49937 8.47366 5.49937 8.67015 5.44937 8.7684C5.39937 8.91577 5.24937 8.96489 5.09937 8.96489H3.09937C2.89937 9.01401 2.69937 8.81752 2.64937 8.62103ZM6.59996 8.17892C6.39996 8.22805 6.19996 8.42454 6.24996 8.62103C6.29996 8.81752 6.49996 9.01401 6.69996 8.96489H8.69996C8.84996 8.96489 8.99996 8.91577 9.04996 8.7684C9.09996 8.67015 9.09996 8.47366 9.04996 8.37542C8.99996 8.27717 8.84996 8.17892 8.69996 8.17892H6.69996H6.64996H6.59996ZM9.84957 8.62103C9.79957 8.42454 9.99957 8.22805 10.1996 8.17892H10.2496H10.2996H12.2996C12.4496 8.17892 12.5996 8.27717 12.6496 8.37542C12.6996 8.47366 12.6996 8.67015 12.6496 8.7684C12.5996 8.91577 12.4496 8.96489 12.2996 8.96489H10.2996C10.0996 9.01401 9.89957 8.81752 9.84957 8.62103ZM13.8002 8.17892C13.6002 8.22805 13.4002 8.42454 13.4502 8.62103C13.5002 8.81752 13.7002 9.01401 13.9002 8.96489H15.9002C16.0502 8.96489 16.2002 8.91577 16.2502 8.7684C16.3002 8.67015 16.3002 8.47366 16.2502 8.37542C16.2002 8.27717 16.0502 8.17892 15.9002 8.17892H13.9002H13.8502H13.8002ZM2.64937 10.5859C2.59937 10.3894 2.79937 10.193 2.99937 10.1438H3.04937H3.09937H8.29937C8.44937 10.1438 8.59937 10.2421 8.64937 10.3403C8.69937 10.4386 8.69937 10.6351 8.64937 10.7333C8.59937 10.8807 8.44937 10.9298 8.29937 10.9298H3.09937C2.89937 10.9789 2.69937 10.7824 2.64937 10.5859Z" fill="#3949AB"/>
</svg>
