<svg width="19" height="13" viewBox="0 0 19 13" fill="none" xmlns="http://www.w3.org/2000/svg">
<path fill-rule="evenodd" clip-rule="evenodd" d="M0.299805 2.1001C0.299805 1.0001 1.1998 0.100098 2.2998 0.100098H16.6998C17.7998 0.100098 18.6998 1.0001 18.6998 2.1001V10.9001C18.6998 12.0001 17.7998 12.9001 16.6998 12.9001H2.2998C1.1998 12.9001 0.299805 12.0001 0.299805 10.9001V2.1001ZM16.6996 0.900085H2.29961C1.64961 0.900085 1.09961 1.45009 1.09961 2.10009V10.9001C1.09961 11.5501 1.64961 12.1001 2.29961 12.1001H16.6996C17.3496 12.1001 17.8996 11.5501 17.8996 10.9001V2.10009C17.8996 1.45009 17.3496 0.900085 16.6996 0.900085ZM3.5002 2.90009C3.0502 2.90009 2.7002 3.25009 2.7002 3.70009V4.90009C2.7002 5.35009 3.0502 5.70009 3.5002 5.70009H5.1002C5.5502 5.70009 5.9002 5.35009 5.9002 4.90009V3.70009C5.9002 3.25009 5.5502 2.90009 5.1002 2.90009H3.5002ZM5.1 3.7001H3.5V4.9001H5.1V3.7001ZM10.6 3.7001C10.4 3.7501 10.2 3.9501 10.25 4.1501C10.3 4.3501 10.5 4.5001 10.7 4.5001H15.9C16.05 4.5001 16.2 4.4501 16.25 4.3001C16.3 4.2001 16.3 4.0001 16.25 3.9001C16.2 3.8001 16.05 3.7001 15.9 3.7001H10.7H10.65H10.6ZM2.64937 8.1501C2.59937 7.9501 2.79937 7.7501 2.99937 7.7001H3.04937H3.09937H5.09937C5.24937 7.7001 5.39937 7.8001 5.44937 7.9001C5.49937 8.0001 5.49937 8.2001 5.44937 8.3001C5.39937 8.4501 5.24937 8.5001 5.09937 8.5001H3.09937C2.89937 8.5501 2.69937 8.3501 2.64937 8.1501ZM6.59996 7.7001C6.39996 7.7501 6.19996 7.9501 6.24996 8.1501C6.29996 8.3501 6.49996 8.5501 6.69996 8.5001H8.69996C8.84996 8.5001 8.99996 8.4501 9.04996 8.3001C9.09996 8.2001 9.09996 8.0001 9.04996 7.9001C8.99996 7.8001 8.84996 7.7001 8.69996 7.7001H6.69996H6.64996H6.59996ZM9.84957 8.1501C9.79957 7.9501 9.99957 7.7501 10.1996 7.7001H10.2496H10.2996H12.2996C12.4496 7.7001 12.5996 7.8001 12.6496 7.9001C12.6996 8.0001 12.6996 8.2001 12.6496 8.3001C12.5996 8.4501 12.4496 8.5001 12.2996 8.5001H10.2996C10.0996 8.5501 9.89957 8.3501 9.84957 8.1501ZM13.8002 7.7001C13.6002 7.7501 13.4002 7.9501 13.4502 8.1501C13.5002 8.3501 13.7002 8.5501 13.9002 8.5001H15.9002C16.0502 8.5001 16.2002 8.4501 16.2502 8.3001C16.3002 8.2001 16.3002 8.0001 16.2502 7.9001C16.2002 7.8001 16.0502 7.7001 15.9002 7.7001H13.9002H13.8502H13.8002ZM2.64937 10.1501C2.59937 9.9501 2.79937 9.7501 2.99937 9.7001H3.04937H3.09937H8.29937C8.44937 9.7001 8.59937 9.8001 8.64937 9.9001C8.69937 10.0001 8.69937 10.2001 8.64937 10.3001C8.59937 10.4501 8.44937 10.5001 8.29937 10.5001H3.09937C2.89937 10.5501 2.69937 10.3501 2.64937 10.1501Z" fill="#FF6F00"/>
</svg>
