<svg width="64" height="64" viewBox="0 0 64 64" fill="none" xmlns="http://www.w3.org/2000/svg">
<circle cx="32" cy="32" r="32" fill="#7A4197" fill-opacity="0.04"/>
<path fill-rule="evenodd" clip-rule="evenodd" d="M17.125 45.8182V43.2022C17.1238 40.0274 19.2484 37.2245 22.3598 36.2963L22.9833 36.1244C21.2914 34.1869 20.6382 31.5826 21.2219 29.1016L22.941 21.9413C23.864 17.5064 27.8633 14.3215 32.5009 14.3281C37.1385 14.3348 41.1282 17.5312 42.0377 21.9688L43.7709 29.1016C44.3546 31.5826 43.7015 34.1869 42.0095 36.1244L42.6331 36.2963C45.7458 37.2233 47.8721 40.0265 47.8714 43.2022V45.8182C47.8714 46.2928 47.4771 46.6775 46.9907 46.6775C46.5043 46.6775 46.11 46.2928 46.11 45.8182V43.2022C46.1104 40.7853 44.4939 38.6513 42.1258 37.9429L41.5868 37.7916L40.058 37.3963C39.7358 37.3122 39.4899 37.0578 39.4228 36.7391C39.3557 36.4203 39.4788 36.0919 39.7409 35.8907C41.7143 34.3755 42.6133 31.8844 42.0483 29.4969L40.3292 22.3297C39.5935 18.6851 36.3218 16.0553 32.515 16.0486C28.7083 16.0419 25.4269 18.6602 24.6777 22.3022L22.9516 29.4935C22.3875 31.8809 23.2863 34.3715 25.259 35.8872C25.5211 36.0884 25.6442 36.4169 25.5771 36.7356C25.51 37.0544 25.2641 37.3088 24.9419 37.3929L23.4095 37.7916L22.8706 37.9429C20.5025 38.6513 18.8859 40.7853 18.8864 43.2022V45.8182C18.8864 46.2928 18.4921 46.6775 18.0057 46.6775C17.5193 46.6775 17.125 46.2928 17.125 45.8182ZM36.596 34.1786V36.5402C36.5947 36.7357 36.7046 36.9157 36.8813 37.0077C37.1061 37.1284 37.2658 37.3388 37.3186 37.5838C37.3714 37.8289 37.3121 38.0842 37.1561 38.283L33.6756 42.7243C33.3951 43.0825 32.9594 43.2927 32.4973 43.2927C32.0352 43.2927 31.5995 43.0825 31.3189 42.7243L27.842 38.2864C27.686 38.0876 27.6267 37.8323 27.6795 37.5873C27.7323 37.3422 27.892 37.1318 28.1168 37.0111C28.2935 36.9192 28.4034 36.7391 28.4021 36.5436V34.1786C27.1678 33.1097 26.3058 31.6918 25.9362 30.1224C25.9272 30.0816 25.9213 30.0403 25.9186 29.9986L25.7072 27.3689V27.3311V27.2864L25.6685 25.3133C25.6575 24.9075 25.8226 24.516 26.1231 24.2352C26.4236 23.9544 26.8316 23.8104 27.2467 23.8386C28.4021 23.9039 30.7694 23.6599 33.5876 21.2949C33.9206 21.0124 34.3643 20.8877 34.8002 20.9539C35.2362 21.0202 35.62 21.2707 35.8492 21.6386C36.4785 22.6165 37.3786 23.4007 38.4454 23.9005C38.9966 24.179 39.338 24.7387 39.3261 25.3443L39.2556 28.6064C39.2011 30.7438 38.2375 32.7626 36.596 34.1786ZM37.5579 25.4025L37.491 28.5788L37.4875 28.5822C37.4415 30.2877 36.6505 31.8927 35.3139 32.9925C35.0093 33.2343 34.8311 33.596 34.8278 33.9791V36.54C34.828 37.0144 34.9821 37.4765 35.2681 37.86L32.4958 41.3972L29.7128 37.8635C29.9988 37.4799 30.153 37.0178 30.1531 36.5435V33.9791C30.1524 33.5977 29.9782 33.2363 29.6776 32.9925C28.6804 32.1672 27.9784 31.0535 27.6731 29.8128L27.4653 27.2278L27.4336 25.5641C28.8955 25.5882 31.5164 25.1963 34.5002 22.79C35.2741 23.9013 36.3268 24.8007 37.5579 25.4025Z" fill="#763E92"/>
</svg>
