<svg width="64" height="64" viewBox="0 0 64 64" fill="none" xmlns="http://www.w3.org/2000/svg">
<circle cx="32" cy="32" r="32" fill="#773F93" fill-opacity="0.04"/>
<path fill-rule="evenodd" clip-rule="evenodd" d="M45.6844 20.248C45.6844 18.0389 43.8935 16.248 41.6844 16.248H22.3164C20.1073 16.248 18.3164 18.0389 18.3164 20.248V42.648C18.3164 44.8572 20.1073 46.648 22.3164 46.648H26.2964L31.4484 51.532C31.7574 51.8266 32.2434 51.8266 32.5524 51.532L37.7044 46.632H41.6844C43.8935 46.632 45.6844 44.8412 45.6844 42.632V20.248ZM32.003 49.8482L25.603 43.7602C24.9073 43.074 24.5156 42.1375 24.5156 41.1602C24.5156 40.183 24.9073 39.2465 25.603 38.5602C27.0638 37.1202 29.4103 37.1202 30.871 38.5602C31.0455 38.7335 31.2023 38.9238 31.339 39.1282C31.4876 39.3494 31.7366 39.482 32.003 39.482C32.2695 39.482 32.5184 39.3494 32.667 39.1282C33.2876 38.2009 34.2905 37.5998 35.4009 37.4899C36.5113 37.3799 37.6127 37.7726 38.403 38.5602C39.0988 39.2465 39.4905 40.183 39.4905 41.1602C39.4905 42.1375 39.0988 43.074 38.403 43.7602L32.003 49.8482ZM41.6821 45.0477C43.0075 45.0477 44.0821 43.9731 44.0821 42.6477V20.2477C44.0821 18.9222 43.0075 17.8477 41.6821 17.8477H22.3141C20.9886 17.8477 19.9141 18.9222 19.9141 20.2477V42.6477C19.9141 43.9731 20.9886 45.0477 22.3141 45.0477H24.6141L24.4861 44.9277C23.4837 43.9405 22.9193 42.5925 22.9193 41.1857C22.9193 39.7788 23.4837 38.4308 24.4861 37.4437C26.5722 35.3903 29.9199 35.3903 32.0061 37.4437C34.0913 35.3881 37.4408 35.3881 39.5261 37.4437C40.5247 38.4303 41.0867 39.7758 41.0867 41.1797C41.0867 42.5835 40.5247 43.929 39.5261 44.9157L39.3861 45.0477H41.6821Z" fill="#763E92"/>
<path d="M39.3351 28.9961H24.6711C24.2293 28.9961 23.8711 29.3543 23.8711 29.7961C23.8711 30.2379 24.2293 30.5961 24.6711 30.5961H39.3351C39.7769 30.5961 40.1351 30.2379 40.1351 29.7961C40.1351 29.3543 39.7769 28.9961 39.3351 28.9961Z" fill="#763E92"/>
<path d="M26.7258 25.6605H37.2778C37.7196 25.6605 38.0778 25.3024 38.0778 24.8605C38.0778 24.4187 37.7196 24.0605 37.2778 24.0605H26.7258C26.284 24.0605 25.9258 24.4187 25.9258 24.8605C25.9258 25.3024 26.284 25.6605 26.7258 25.6605Z" fill="#763E92"/>
</svg>
