<svg width="64" height="64" viewBox="0 0 64 64" fill="none" xmlns="http://www.w3.org/2000/svg">
<circle cx="32" cy="32" r="32" fill="#794196" fill-opacity="0.04"/>
<path fill-rule="evenodd" clip-rule="evenodd" d="M39.6607 22C37.7688 22 35.9952 22.7093 34.6946 24.0096L31.9751 26.7285L29.2556 24.0096C26.4178 21.1725 21.57 21.4089 18.4957 24.4824C17.0178 25.9601 16.131 27.9106 16.0127 29.9202C15.8945 31.9889 16.6039 33.8802 18.0228 35.2397L26.1813 43.3962C26.1813 43.4554 26.2405 43.4554 26.2405 43.4554L26.5952 43.81L26.6543 43.8691L26.7134 43.9282C26.9499 44.1646 27.1273 44.3419 27.3637 44.5193L27.5411 44.6966C27.5707 44.6966 27.5854 44.7113 27.6002 44.7261C27.615 44.7409 27.6298 44.7557 27.6593 44.7557H27.7185C27.748 44.7557 27.7628 44.7705 27.7776 44.7852C27.7924 44.8 27.8071 44.8148 27.8367 44.8148C27.8663 44.8148 27.881 44.8296 27.8958 44.8443C27.9106 44.8591 27.9254 44.8739 27.9549 44.8739C28.0732 44.933 28.1914 45.0069 28.3097 45.0808C28.4279 45.1546 28.5461 45.2285 28.6644 45.2876L28.7235 45.3467C28.7552 45.3626 28.7826 45.3784 28.8081 45.3931C28.8777 45.4333 28.9325 45.4649 29.0191 45.4649H29.0782H29.1373C30.2015 45.9378 31.7386 46.2333 33.5713 45.7605C33.6009 45.7605 33.6452 45.7457 33.6896 45.7309L33.6896 45.7309C33.7339 45.7161 33.7783 45.7014 33.8078 45.7014H33.926H33.9852C34.0097 45.7014 34.0341 45.6912 34.0628 45.6793C34.1034 45.6625 34.1524 45.6423 34.2216 45.6423H34.2808C35.404 45.2285 36.6456 44.4602 37.9462 43.278L45.9865 35.2397C47.3463 33.8211 48.0557 31.9298 47.9966 29.9202C47.8783 27.8515 46.9915 25.9601 45.5135 24.4824C43.9173 22.8866 41.789 22 39.6607 22ZM36.5848 41.6224V41.6815C36.5848 41.7067 36.5848 41.7211 36.5802 41.7339C36.5741 41.7513 36.5597 41.7658 36.5257 41.7998C36.5257 41.8249 36.5257 41.8393 36.5211 41.8522C36.515 41.8695 36.5005 41.884 36.4665 41.918C36.4342 41.9664 36.4019 42.0237 36.366 42.0874C36.2704 42.2568 36.1493 42.4716 35.9345 42.6863L29.7269 36.3029C29.4313 36.0074 28.9583 36.0074 28.6627 36.3029C28.3671 36.5985 28.3671 37.0713 28.6627 37.3668L34.6929 43.5729C34.2791 43.8093 33.8653 43.9276 33.4514 44.0458L27.7759 38.2534C27.4803 37.9579 27.0074 37.9579 26.7118 38.2534C26.4162 38.5489 26.4162 39.0218 26.7118 39.3173L31.5596 44.2822C30.8501 44.2231 30.1407 44.1049 29.5495 43.8093C29.313 43.6911 29.0765 43.5729 28.8401 43.3956C28.7218 43.3365 28.6036 43.2183 28.4854 43.1001L28.1306 42.7454L28.0124 42.6272C27.9533 42.5681 27.8942 42.509 27.7759 42.4499L27.7168 42.3908L27.6577 42.3317L24.4061 39.0809L24.0514 38.7263L19.3809 34.0569C18.3758 33.0521 17.8438 31.6336 17.9029 30.0377C17.962 28.4419 18.6714 26.9642 19.8538 25.7821C22.2778 23.3588 26.0023 23.1224 28.1306 25.3093L30.8501 28.0281L30.0225 28.8556L28.7809 30.0968L30.0225 31.3381L30.3772 31.6927L31.2049 32.5202L32.4464 33.7614L35.6389 36.9531C36.4074 37.7806 36.8804 38.7854 36.9395 39.9084L31.6778 34.5889C31.3822 34.2933 30.9093 34.2933 30.6137 34.5889C30.2589 34.7662 30.2589 35.239 30.5545 35.4754L36.5848 41.6224ZM36.8229 35.6535C38.0053 36.8356 38.6556 38.4314 38.6556 40.0864L44.745 33.9985C45.75 32.9346 46.2821 31.5161 46.223 30.0384C46.1638 28.5017 45.4544 26.9649 44.272 25.7828C43.0305 24.5416 41.3751 23.8323 39.7198 23.8323C38.3009 23.8323 37.0003 24.3643 36.0543 25.31L33.0392 28.3244L32.3889 28.9745L31.2656 30.0975L31.6203 30.4522L32.2115 31.0432L33.8078 29.4474C34.1625 29.0927 34.6946 29.0927 35.0493 29.4474C35.404 29.802 35.404 30.334 35.0493 30.6886L33.4531 32.2844L36.8229 35.6535Z" fill="#743D90"/>
</svg>
