<svg width="97" height="80" viewBox="0 0 97 80" fill="none" xmlns="http://www.w3.org/2000/svg">
<path fill-rule="evenodd" clip-rule="evenodd" d="M80.73 12.439C70.5423 4.18393 59.952 0 49.0315 0C38.111 0 27.5207 4.18392 17.3334 12.4387C16.4593 13.1469 15.9513 14.2133 15.9513 15.3399L15.9513 53.2912C15.9513 54.443 16.4821 55.5302 17.3894 56.237L46.7481 79.1048C48.0914 80.1512 49.9716 80.1512 51.3149 79.1048L80.6736 56.237C81.5809 55.5302 82.1117 54.443 82.1117 53.2912V15.34C82.1117 14.2134 81.6038 13.1473 80.73 12.439ZM49.0315 72.4845L22.5674 51.8712L22.5674 16.7433C31.2834 9.9691 40.0833 6.63212 49.0315 6.63212C57.9797 6.63212 66.7796 9.96911 75.4956 16.7433V51.8712L49.0315 72.4845Z" fill="#72727D"/>
<path fill-rule="evenodd" clip-rule="evenodd" d="M7.33663 39.4082C7.06071 38.5364 7.5426 37.6143 8.42588 37.3776C13.0674 36.1339 27.5592 32.7461 47.7075 32.7461C67.9241 32.7461 83.7217 36.1569 88.773 37.3902C89.703 37.6173 90.2067 38.594 89.8856 39.4958L89.1462 41.5726C89.3019 41.5137 89.4761 41.5016 89.647 41.5462L96.2896 43.2823C96.8676 43.4334 97.0993 44.129 96.7273 44.5965L89.8368 53.2567C89.6919 53.4388 89.6305 53.6735 89.6677 53.9032L90.7993 60.9012C90.8899 61.4612 90.4021 61.944 89.843 61.8476L81.1985 60.3575C80.6603 60.2647 80.3585 59.6849 80.5911 59.1909L81.41 57.4523C77.3804 56.056 66.5704 53.0759 47.7075 53.0759C30.6731 53.0759 20.7305 55.5062 16.2172 57.0057L17.2463 59.1909C17.479 59.6849 17.1771 60.2647 16.639 60.3575L7.9944 61.8476C7.43529 61.944 6.94754 61.4612 7.03811 60.9012L8.16975 53.9032C8.2069 53.6735 8.14549 53.4388 8.00061 53.2567L1.1101 44.5965C0.738114 44.129 0.969821 43.4334 1.54787 43.2823L8.0268 41.589L7.33663 39.4082Z" fill="url(#paint0_linear_844_18068)"/>
<g opacity="0.226725">
<path fill-rule="evenodd" clip-rule="evenodd" d="M89.6547 41.3725L80.1541 59.103C79.8788 59.6167 80.2075 60.2464 80.7865 60.3142L82.5274 60.518L91.2109 41.7823L89.6547 41.3725Z" fill="url(#paint1_linear_844_18068)"/>
<path fill-rule="evenodd" clip-rule="evenodd" d="M7.92969 41.3725L17.4303 59.103C17.7056 59.6167 17.3768 60.2464 16.7979 60.3142L15.0569 60.518L6.3734 41.7823L7.92969 41.3725Z" fill="url(#paint2_linear_844_18068)"/>
</g>
<path fill-rule="evenodd" clip-rule="evenodd" d="M51.0855 46.1615L48.3663 46.1484L47.884 47.6875L45.764 47.6773L48.8226 39.4407L50.6881 39.4497L53.6899 47.7156L51.5586 47.7053L51.0855 46.1615ZM42.0866 44.8401L41.0127 44.8616L41.0708 47.7739L39.0869 47.8138L38.9221 39.5641L42.1609 39.4991C43.1368 39.4795 43.9042 39.6814 44.463 40.1048C45.0219 40.5281 45.3092 41.1364 45.325 41.9296C45.3365 42.5038 45.2301 42.9821 45.0059 43.3644C44.7817 43.7468 44.4252 44.0601 43.9362 44.3042L45.7209 47.5956L45.7226 47.6806L43.5974 47.7232L42.0866 44.8401ZM36.029 46.4121L33.3133 46.5523L32.9182 48.1161L30.801 48.2254L33.3926 39.8294L35.2558 39.7333L38.7165 47.8169L36.588 47.9268L36.029 46.4121ZM30.2931 45.4171L29.7839 40.0405L27.8085 40.2285L28.3166 45.5938C28.3646 46.1015 28.2943 46.4782 28.1056 46.7239C27.9168 46.9696 27.618 47.1119 27.209 47.1508C26.3985 47.2279 25.9395 46.8181 25.8319 45.9213L25.3152 40.4657L23.3285 40.6548L23.8414 46.0709C23.9382 46.9725 24.2981 47.6555 24.9214 48.1199C25.5446 48.5843 26.3552 48.769 27.3532 48.674C28.0136 48.6112 28.5747 48.4402 29.0367 48.1609C29.4986 47.8817 29.8379 47.5069 30.0546 47.0365C30.2713 46.5662 30.3508 46.0264 30.2931 45.4171ZM21.8671 49.0037C22.4148 48.7052 22.8125 48.3639 23.0602 47.9797L22.5248 44.6335L19.2035 45.1675L19.4193 46.516L20.7813 46.2971L20.9836 47.5617C20.7707 47.8293 20.4093 48.0041 19.8995 48.0861C19.3041 48.1818 18.8351 48.0477 18.4925 47.6838C18.1499 47.3199 17.9135 46.7314 17.7834 45.9181L17.7046 45.4257C17.5842 44.6492 17.6245 44.0305 17.8256 43.5696C18.0267 43.1087 18.3728 42.8388 18.8641 42.7598C19.2734 42.694 19.6052 42.7401 19.8596 42.8982C20.1139 43.0563 20.3109 43.3575 20.4507 43.8019L22.3374 43.4985C22.097 42.592 21.6596 41.9516 21.0252 41.5773C20.3908 41.2029 19.5675 41.097 18.5553 41.2598C17.8632 41.3711 17.2796 41.6304 16.8047 42.0377C16.3297 42.4451 15.9988 42.9708 15.8117 43.6151C15.6247 44.2593 15.5954 44.9824 15.7237 45.7844L15.8421 46.4885C16.073 47.6453 16.5588 48.4988 17.2996 49.0494C18.0404 49.5999 18.943 49.7895 20.0073 49.6184C20.6994 49.5071 21.3194 49.3022 21.8671 49.0037ZM35.476 44.9028L33.7088 44.994L34.4428 42.0905L35.476 44.9028ZM42.2368 43.301L40.982 43.3262L40.9367 41.0598L42.1915 41.0346C42.5646 41.0271 42.8492 41.1225 43.0454 41.3207C43.2416 41.5189 43.3433 41.7956 43.3504 42.1507C43.3575 42.5057 43.2678 42.7843 43.0815 42.9864C42.8952 43.1886 42.6136 43.2934 42.2368 43.301ZM50.618 44.6235L48.8486 44.6149L49.7442 41.7573L50.618 44.6235ZM60.9269 47.9816L58.9551 47.9119L56.2202 42.6778L56.0398 47.809L54.0567 47.7389L54.3465 39.4928L56.3296 39.5628L59.059 44.7968L59.2393 39.6656L61.2168 39.7354L60.9269 47.9816ZM66.2479 41.6309L68.7119 41.811L68.8233 40.2792L61.9614 39.7779L61.85 41.3096L64.2689 41.4863L63.7818 48.1841L65.7609 48.3287L66.2479 41.6309ZM74.3035 45.7087L71.2043 45.3432L70.9751 47.2962L74.6358 47.7279L74.4575 49.2475L68.826 48.5834L69.7877 40.3886L75.4304 41.0541L75.2514 42.5793L71.5794 42.1463L71.3766 43.8742L74.4759 44.2397L74.3035 45.7087ZM77.5799 46.2514L80.6538 46.7904L80.9081 45.3334L77.8341 44.7944L78.1331 43.0806L81.7751 43.7192L82.0391 42.2064L76.4424 41.2251L75.0242 49.353L80.6097 50.3323L80.8727 48.8251L77.2419 48.1885L77.5799 46.2514Z" fill="white"/>
<path fill-rule="evenodd" clip-rule="evenodd" d="M30.2813 19.0563L32.3735 25.4147L34.4593 19.0563H37.4334V28.1954H35.1674V26.0612L35.3863 21.6926L33.1203 28.1954H31.6268L29.3543 21.6863L29.5732 26.0612V28.1954H27.3136V19.0563H30.2813ZM43.8091 26.4881H40.7538L40.2202 28.1954H37.8382L41.2302 19.0563H43.3263L46.7437 28.1954H44.349L43.8091 26.4881ZM41.4814 24.6192H43.5053L42.4901 21.4404L41.4814 24.6192ZM53.6252 20.7573H50.8635V28.1954H48.6453V20.7573H45.9341V19.0563H53.6252V20.7573ZM61.7022 24.9274C61.6728 25.5729 61.5008 26.143 61.1861 26.6378C60.8714 27.1326 60.4298 27.5159 59.8612 27.7877C59.2927 28.0595 58.6434 28.1954 57.9133 28.1954C56.709 28.1954 55.7608 27.7983 55.0685 27.0041C54.3761 26.2099 54.03 25.0888 54.03 23.6406V23.1819C54.03 22.273 54.1863 21.4778 54.4989 20.7962C54.8115 20.1146 55.2615 19.5879 55.8489 19.2163C56.4363 18.8447 57.116 18.6589 57.8881 18.6589C59 18.6589 59.8937 18.9552 60.5693 19.5476C61.2448 20.14 61.6287 20.9565 61.721 21.997H59.5182C59.5014 21.4322 59.3609 21.0266 59.0965 20.7803C58.8322 20.5339 58.4294 20.4108 57.8881 20.4108C57.3384 20.4108 56.9356 20.6189 56.6797 21.0351C56.4237 21.4513 56.2895 22.1159 56.2769 23.029V23.6851C56.2769 24.6747 56.3996 25.3818 56.6451 25.8065C56.8905 26.2312 57.3133 26.4435 57.9133 26.4435C58.421 26.4435 58.8091 26.3225 59.0776 26.0804C59.3462 25.8383 59.4888 25.454 59.5056 24.9274H61.7022ZM70.2217 28.1954H68.0161V24.379H64.7488V28.1954H62.5306V19.0563H64.7488V22.6843H68.0161V19.0563H70.2217V28.1954Z" fill="#48BCB2"/>
<path fill-rule="evenodd" clip-rule="evenodd" d="M49.0259 59.4164C50.3177 58.1245 52.4131 58.1253 53.706 59.4182C54.9989 60.7111 54.9997 62.8064 53.7078 64.0983C53.6707 64.1354 53.633 64.1714 53.5946 64.2064C53.5547 64.2652 53.5082 64.3209 53.455 64.3725L50.7646 66.9847C49.796 67.9251 48.253 67.9178 47.2934 66.9682L44.6963 64.3982C44.5748 64.3065 44.4583 64.2053 44.3476 64.0946C43.0548 62.8017 43.0539 60.7064 44.3458 59.4145C45.6377 58.1227 47.733 58.1235 49.0259 59.4164Z" fill="url(#paint3_linear_844_18068)"/>
<defs>
<linearGradient id="paint0_linear_844_18068" x1="0.92981" y1="61.8599" x2="96.9076" y2="61.8599" gradientUnits="userSpaceOnUse">
<stop stop-color="#39B9C4"/>
<stop offset="1" stop-color="#7BC670"/>
</linearGradient>
<linearGradient id="paint1_linear_844_18068" x1="88.455" y1="61.3922" x2="79.9489" y2="60.1967" gradientUnits="userSpaceOnUse">
<stop stop-color="#39B9C4"/>
<stop offset="1" stop-color="#7BC670"/>
</linearGradient>
<linearGradient id="paint2_linear_844_18068" x1="9.12939" y1="61.3922" x2="17.6355" y2="60.1967" gradientUnits="userSpaceOnUse">
<stop stop-color="#39B9C4"/>
<stop offset="1" stop-color="#7BC670"/>
</linearGradient>
<linearGradient id="paint3_linear_844_18068" x1="42.0148" y1="68.7792" x2="56.0658" y2="68.7629" gradientUnits="userSpaceOnUse">
<stop stop-color="#39B9C4"/>
<stop offset="1" stop-color="#7BC670"/>
</linearGradient>
</defs>
</svg>
