<svg width="25" height="8" viewBox="0 0 25 8" fill="none" xmlns="http://www.w3.org/2000/svg">
<path d="M19.3042 1.67907C19.4062 1.59747 19.4572 1.55667 19.5082 1.51587C20.2171 0.914061 21.1249 0.980363 21.7318 1.69437C21.793 1.76578 21.8236 1.77088 21.8848 1.70967C21.9256 1.66377 21.9715 1.62807 22.0123 1.58217C22.4866 1.11806 23.1139 0.980363 23.7004 1.24047C24.3176 1.51587 24.6491 2.00038 24.6542 2.67869C24.6644 4.14241 24.6593 5.60104 24.6593 7.06476C24.6593 7.58497 24.338 7.91138 23.8228 7.91138C23.6188 7.91138 23.4148 7.89607 23.2108 7.91647C23.0017 7.93688 22.9405 7.87057 22.9405 7.65127C22.9507 6.22325 22.9456 4.79522 22.9456 3.3672C22.9456 3.306 22.9456 3.2499 22.9456 3.1887C22.9405 2.85719 22.8079 2.71949 22.4917 2.70419C22.2061 2.68889 22.0072 2.86229 21.9766 3.153C21.9715 3.2193 21.9766 3.2907 21.9766 3.357C21.9766 4.59122 21.9766 5.82034 21.9766 7.05456C21.9766 7.59517 21.6655 7.91138 21.1249 7.90628C20.8495 7.90118 20.4772 8.02868 20.3191 7.85017C20.1814 7.69717 20.2732 7.33507 20.2732 7.06476C20.2732 5.79994 20.2732 4.53002 20.2732 3.2652C20.2732 2.81639 19.9825 2.58689 19.6051 2.73989C19.3705 2.83679 19.294 3.0255 19.294 3.2703C19.2991 4.45352 19.294 5.63164 19.294 6.81486C19.294 6.90666 19.294 7.00356 19.294 7.09536C19.2787 7.59007 18.9625 7.90118 18.4729 7.90628C18.2689 7.91138 18.0649 7.89097 17.8609 7.91138C17.6415 7.93178 17.5752 7.87057 17.5803 7.63597C17.5905 5.63164 17.5854 3.62731 17.5854 1.61787C17.5854 1.53117 17.5905 1.44957 17.5854 1.36287C17.5752 1.25067 17.6211 1.21497 17.7334 1.21497C18.2026 1.22007 18.6667 1.22007 19.1359 1.21497C19.2532 1.21497 19.3093 1.24557 19.2991 1.37307C19.2889 1.46487 19.2991 1.54647 19.3042 1.67907Z" fill="#02B9EF"/>
<path fill-rule="evenodd" clip-rule="evenodd" d="M8.49103 6.53449V4.44345C8.49103 4.20035 8.4916 3.95668 8.49216 3.71301C8.4933 3.22566 8.49443 2.73832 8.49103 2.25552C8.48593 1.64351 8.07282 1.2304 7.46591 1.2304C7.27532 1.2304 7.0853 1.22983 6.89546 1.22926C6.51636 1.22813 6.138 1.227 5.75739 1.2304C5.69642 1.2304 5.62994 1.22488 5.56298 1.21932C5.38907 1.20489 5.21193 1.19019 5.11988 1.2712C5.01454 1.36564 5.03596 1.54544 5.05702 1.72218C5.06553 1.7936 5.07398 1.86453 5.07398 1.92911C5.06888 2.47992 5.37998 2.78592 5.94099 2.79612C6.17049 2.80122 6.4 2.80122 6.6295 2.79612C6.8335 2.78592 6.92531 2.87773 6.92531 3.08173C6.93041 3.28573 6.8488 3.40813 6.6346 3.41323C6.56169 3.41323 6.48821 3.41267 6.41454 3.41211C6.26664 3.41097 6.11798 3.40983 5.97159 3.41323C5.13518 3.42343 4.50277 4.00484 4.46197 4.83106C4.43136 5.40737 4.43646 5.98878 4.46707 6.56509C4.50787 7.3709 5.09948 7.90641 5.90529 7.91661C6.17068 7.92001 6.43834 7.91887 6.70525 7.91774C6.83842 7.91717 6.97139 7.91661 7.10381 7.91661C8.01162 7.91151 8.48593 7.4423 8.49103 6.53449ZM6.93062 5.34614V5.60115C6.92858 5.64807 6.93144 5.69662 6.9343 5.74517C6.93858 5.818 6.94286 5.89083 6.93062 5.95815C6.92054 6.00138 6.92918 6.05438 6.93791 6.10795C6.96009 6.24398 6.98287 6.38368 6.70112 6.37636C6.17071 6.36106 6.00751 6.26416 6.00241 5.89695C5.99731 5.68275 5.99731 5.47364 6.00241 5.25944C6.00751 4.98914 6.15031 4.85653 6.41042 4.84633C6.67059 4.83613 6.80064 4.83103 6.86565 4.89356C6.93062 4.95605 6.93062 5.0861 6.93062 5.34614Z" fill="#06306F"/>
<path d="M13.0295 3.88753C13.0295 4.66785 13.0397 5.45326 13.0244 6.23357C13.0142 6.83538 12.8714 7.38109 12.29 7.70239C12.0554 7.8299 11.8004 7.9013 11.5352 7.9064C10.9487 7.9166 10.3622 7.9064 9.77569 7.9166C9.63289 7.9166 9.60229 7.8656 9.60739 7.73809C9.61759 7.52389 9.60229 7.31479 9.61249 7.10058C9.62269 6.69258 9.9338 6.38147 10.3418 6.36617C10.607 6.35597 10.8671 6.36107 11.1323 6.36617C11.3465 6.36617 11.4638 6.27947 11.4638 6.04997C11.4638 5.81536 11.3516 5.73376 11.1374 5.72866C10.7804 5.71846 10.4234 5.76946 10.0715 5.66746C9.46459 5.48896 9.02088 4.98405 9.00558 4.35674C8.97498 3.36222 8.99538 2.36771 8.99028 1.37319C8.99028 1.26099 9.02598 1.22529 9.13818 1.23039C9.55639 1.23549 9.9695 1.24059 10.3877 1.23039C10.5713 1.22529 10.5458 1.32729 10.5458 1.43949C10.5458 2.1892 10.5458 2.93382 10.5458 3.68353C10.5458 4.00993 10.6988 4.18334 10.9844 4.19354C11.321 4.20374 11.4689 4.06604 11.4689 3.72433C11.4689 2.96952 11.474 2.2096 11.4638 1.45479C11.4638 1.27629 11.5097 1.22529 11.6882 1.23039C12.0605 1.24569 12.4379 1.25079 12.8102 1.23039C13.0142 1.22019 13.0448 1.29669 13.0397 1.47519C13.0244 2.27591 13.0295 3.08172 13.0295 3.88753Z" fill="#06306F"/>
<path fill-rule="evenodd" clip-rule="evenodd" d="M0.0349127 2.5462V5.04524C0.0349127 5.27966 0.0343469 5.51464 0.0337807 5.74981C0.0326469 6.22071 0.0315113 6.69238 0.0349127 7.16177C0.0364789 7.23695 0.0269831 7.31982 0.0175026 7.40256C-0.00388932 7.58925 -0.0252039 7.77527 0.0808134 7.87069C0.19863 7.97746 0.398841 7.95399 0.597022 7.93077C0.673367 7.92182 0.74941 7.91291 0.820325 7.91149C1.25383 7.90639 1.56494 7.59018 1.57514 7.15158V7.15157C1.58024 6.94757 1.58534 6.74357 1.57514 6.53956C1.57004 6.40186 1.62614 6.36106 1.75364 6.36616C2.03415 6.37126 2.31465 6.37636 2.59515 6.36616C3.52337 6.34066 4.06908 5.77455 4.06908 4.84634C4.06908 4.59983 4.06964 4.35333 4.07021 4.10683C4.07134 3.61382 4.07248 3.12081 4.06908 2.6278C4.06398 1.92909 3.63557 1.40378 2.95726 1.27118C2.58495 1.19958 2.21012 1.21091 1.83455 1.22226C1.67507 1.22708 1.51545 1.2319 1.35583 1.23038C0.534721 1.22018 0.0349127 1.73019 0.0349127 2.5462ZM1.5757 4.28026V3.79575C1.5757 3.72555 1.57601 3.65534 1.57633 3.58522C1.57729 3.37516 1.57824 3.16582 1.5706 2.95934C1.5706 2.83694 1.6114 2.80124 1.7338 2.80124C1.79388 2.80169 1.84983 2.80146 1.90187 2.80124C2.43286 2.799 2.55728 2.79848 2.52941 3.55095C2.52023 3.72237 2.52207 3.89564 2.5239 4.06853C2.52513 4.18369 2.52635 4.29868 2.52431 4.41286C2.51921 4.66277 2.40191 4.78517 2.152 4.80557C1.86349 4.8311 1.71941 4.84385 1.64746 4.77791C1.5757 4.71213 1.5757 4.56805 1.5757 4.28026Z" fill="#06306F"/>
<path d="M14.4721 5.05539C14.4721 4.37708 14.467 3.69367 14.4772 3.01536C14.4772 2.85725 14.4415 2.79095 14.2681 2.79605C14.0386 2.80625 13.7326 2.87255 13.6051 2.76035C13.447 2.61245 13.5694 2.29624 13.549 2.05144C13.549 2.03614 13.549 2.01574 13.549 2.00044C13.549 1.76074 13.4725 1.48023 13.5745 1.30173C13.6765 1.12323 13.9876 1.23543 14.2069 1.17933C14.6404 1.06712 14.9668 0.81722 15.2321 0.470415C15.4157 0.235811 15.6452 0.0675082 15.941 0.0114073C16.0991 -0.0191932 16.196 0.00120712 16.1858 0.20521C16.1705 0.490815 16.1858 0.78152 16.1807 1.07222C16.1756 1.19463 16.2215 1.23543 16.3439 1.23033C16.5479 1.22523 16.7519 1.23543 16.9559 1.22523C17.0783 1.22013 17.1191 1.26603 17.114 1.38843C17.1089 1.80664 17.1089 2.21974 17.114 2.63795C17.114 2.75525 17.0834 2.81645 16.9559 2.80115C16.9304 2.79605 16.9049 2.80115 16.8794 2.80115C16.655 2.82155 16.3439 2.69915 16.2266 2.85215C16.1144 2.99496 16.1858 3.29076 16.1858 3.52026C16.1858 4.90749 16.1807 6.28961 16.1909 7.67683C16.1909 7.87064 16.1399 7.93184 15.9461 7.91654C15.7625 7.90124 15.5738 7.91654 15.3851 7.91144C14.8342 7.89104 14.4721 7.51873 14.4721 6.96792C14.4721 6.33041 14.4721 5.6929 14.4721 5.05539Z" fill="#02B9EF"/>
</svg>
