<svg width="357" height="38" viewBox="0 0 357 38" fill="none" xmlns="http://www.w3.org/2000/svg">
<path fill-rule="evenodd" clip-rule="evenodd" d="M138.566 5.57726C140.601 7.44491 141.429 8.7354 141.968 11.5921L142.062 12.0913H144.176V11.4748C144.176 10.3102 144.104 9.26632 144.022 8.11028C143.927 6.79496 143.595 5.45138 142.765 4.41351C141.591 2.9432 139.786 1.95585 138.089 1.27165C135.725 0.31941 133.114 0 130.587 0C128.34 0 126.197 0.504377 124.183 1.5294C122.173 2.55271 120.437 3.96137 118.978 5.7117C117.45 7.54425 116.304 9.63625 115.485 11.8927C114.599 14.3238 114.198 16.8722 114.198 19.4643C114.198 21.9074 114.546 24.3188 115.326 26.6301C116.054 28.7906 117.128 30.773 118.6 32.4908C120.05 34.1829 121.798 35.4948 123.791 36.4393C125.934 37.4541 128.236 37.8839 130.587 37.8839C132.069 37.8839 133.556 37.7546 135.01 37.4523C136.393 37.1638 137.71 36.6645 138.933 35.9426C140.195 35.2002 141.318 34.248 142.308 33.1596C143.448 31.905 144.371 30.4339 145.13 28.907L145.359 28.4446L143.411 26.9443L143.066 27.5181C141.843 29.5544 140.305 31.4375 138.354 32.7751C136.485 34.0561 134.344 34.5562 132.115 34.5562C130.281 34.5562 128.443 34.2206 126.835 33.2769C125.39 32.4283 124.181 31.3082 123.236 29.9012C122.252 28.4344 121.579 26.7996 121.159 25.0741C120.712 23.2364 120.49 21.3585 120.49 19.4643C120.49 16.9219 120.691 14.1808 121.43 11.7411C121.967 9.97108 122.757 8.21047 123.957 6.80866C124.971 5.62522 126.181 4.7098 127.616 4.14976C129.059 3.5863 130.572 3.32598 132.115 3.32598C134.495 3.32598 136.762 3.92198 138.566 5.57726ZM164.65 36.8357V4.37322H176.111V1.04639H151.828C151.029 1.04639 150.17 1.13887 149.428 1.46256C148.844 1.71603 148.302 2.07141 147.885 2.56979C147.497 3.03221 147.233 3.56827 147.093 4.16256C146.965 4.71575 146.898 5.28178 146.898 5.85124V9.21147H149.116V8.59577C149.116 5.38026 152.272 4.37322 154.884 4.37322H158.868V36.8357H164.65ZM93.0865 4.37322V16.7531H106.84V20.0808H93.0865V33.5089H101.401C105.012 33.5089 107.849 32.5224 109.223 28.8316L109.414 28.323L111.593 28.8813L109.86 33.8112C109.548 34.6992 109.043 35.4528 108.3 36.0102C107.478 36.6259 106.475 36.8357 105.476 36.8357H87.3043V7.94582C87.3043 6.79491 87.1902 5.46504 86.722 4.4049C86.2314 3.29576 85.8061 3.3037 84.8736 3.32109C84.7485 3.32343 84.6142 3.32593 84.4695 3.32593H83.8713V1.04639H105.017C105.816 1.04639 106.674 1.13887 107.416 1.46256C108.001 1.71603 108.542 2.07141 108.96 2.56979C109.349 3.03221 109.613 3.56827 109.751 4.16171C109.881 4.71575 109.946 5.28178 109.946 5.85124V9.21147H107.728V8.59577C107.728 5.38026 104.575 4.37322 101.962 4.37322H93.0865ZM83.7147 33.5089H65.6317V7.94582C65.6317 6.86941 65.5959 5.73649 65.4201 4.67379C65.2918 3.89282 65.0428 3.09472 64.5646 2.4619C64.1156 1.87017 63.5183 1.48654 62.8135 1.30072C62.0538 1.10119 61.2291 1.04639 60.4477 1.04639H56.4165V3.32593H57.0163C57.0759 3.32593 57.1357 3.32465 57.1954 3.32336C57.2552 3.32208 57.315 3.32079 57.3745 3.32079L57.3849 3.32295C57.5047 3.34792 57.6238 3.37275 57.7469 3.39272C58.3917 3.50405 58.984 3.76608 59.2664 4.4049C59.7354 5.46418 59.8495 6.79491 59.8495 7.94582V36.8357H83.7147V33.5089ZM35.5803 4.37322V16.7531H49.3323V20.0808H35.5803V33.5089H43.8942C45.6161 33.5089 47.5654 33.2606 49.0491 32.2955C50.5119 31.3441 51.065 30.5743 51.6982 28.8779L51.8881 28.3684L54.0648 28.9267L52.3538 33.8112C52.043 34.6992 51.5365 35.4528 50.7935 36.0102C49.9712 36.6259 48.9691 36.8357 47.9686 36.8357H29.7973V7.94582C29.7973 6.7932 29.6823 5.46504 29.2133 4.4049C28.8051 3.48264 27.7089 3.32593 26.8317 3.32593H25.213V1.04639H47.5113C48.3101 1.04639 49.1674 1.13887 49.9096 1.46256C50.4952 1.71603 51.0359 2.07141 51.4541 2.56894C51.8423 3.03135 52.1063 3.56827 52.2446 4.16171C52.3746 4.71575 52.4396 5.28178 52.4396 5.85124V9.21147H50.222V8.59577C50.222 6.92282 49.9624 6.69704 48.8459 5.72607L48.7792 5.66799C47.6012 4.64125 45.9526 4.37322 44.4556 4.37322H35.5803ZM22.6206 31.6447C23.1754 30.3063 23.4053 28.8737 23.4053 27.4239C23.4053 26.4725 23.2912 25.5109 22.9921 24.6074C22.7106 23.7554 22.2874 22.9702 21.7534 22.2568C21.1661 21.4707 20.4488 20.7917 19.6758 20.2008C18.7569 19.4969 17.7839 18.8555 16.7976 18.2544L10.5322 14.4326C9.71335 13.9333 8.90446 13.4135 8.12056 12.8578C7.51826 12.4313 6.93596 11.9501 6.43697 11.4003C6.03794 10.9619 5.70472 10.4661 5.48146 9.9103C5.25404 9.33999 5.1724 8.71658 5.1724 8.10259C5.1724 7.42781 5.31068 6.78727 5.61308 6.1887C5.90298 5.61325 6.29035 5.11487 6.77685 4.70469C7.27585 4.28508 7.84565 3.97509 8.45544 3.76444C9.10355 3.54179 9.76416 3.43133 10.4456 3.43133C12.714 3.43133 15.0407 3.91943 16.7684 5.52333C18.7469 7.35844 19.4184 8.75255 19.8724 11.5262L19.9557 12.0391H22.0824V7.00392C22.0824 5.83932 21.6626 4.81772 20.9112 3.9494C20.1348 3.05026 19.1759 2.35492 18.1338 1.81886C16.9684 1.21943 15.7221 0.806683 14.4484 0.535227C13.143 0.256064 11.8143 0.103638 10.4797 0.103638C9.04441 0.103638 7.60323 0.290317 6.23953 0.764723C5.02078 1.18775 3.89367 1.81629 2.92733 2.69317C1.99932 3.53494 1.2754 4.54284 0.766405 5.70316C0.223257 6.93884 0 8.27129 0 9.62172C0 11.5202 0.403195 13.357 1.45284 14.9429C2.60494 16.6873 4.51012 18.0934 6.25286 19.1569L12.5182 22.9787C13.9144 23.8308 15.493 24.9012 16.5777 26.1574C17.4432 27.1593 17.8256 28.3385 17.8256 29.6743C17.8256 30.38 17.6873 31.0564 17.3441 31.673C17.0158 32.263 16.5793 32.7554 16.0445 33.1553C15.4714 33.5843 14.8224 33.8866 14.141 34.081C13.3763 34.2994 12.5899 34.3987 11.796 34.3987C9.47926 34.3987 7.15589 33.8798 5.38899 32.2527C3.37635 30.4005 2.66992 29.0158 2.20758 26.2002L2.12511 25.6873H0V30.7225C0 31.8965 0.434018 32.9164 1.19876 33.7813C2.00598 34.6924 3.00647 35.3929 4.07861 35.9341C5.29902 36.5524 6.60774 36.9805 7.93812 37.2674C9.34431 37.5714 10.7746 37.7264 12.2125 37.7264C13.7678 37.7264 15.3314 37.526 16.8109 37.0122C18.1205 36.5584 19.3309 35.8793 20.3572 34.9219C21.3435 34.0031 22.0983 32.9035 22.6206 31.6447Z" fill="#663977"/>
<path fill-rule="evenodd" clip-rule="evenodd" d="M207.284 27.421C207.284 28.8707 207.053 30.3034 206.499 31.6427C205.976 32.9006 205.223 34.0001 204.237 34.919C203.209 35.8772 201.999 36.5554 200.69 37.0101C199.211 37.5239 197.646 37.7235 196.09 37.7235C194.653 37.7235 193.223 37.5693 191.816 37.2653C190.485 36.9776 189.179 36.5503 187.957 35.932C186.886 35.39 185.886 34.6895 185.078 33.7784C184.312 32.9143 183.878 31.8944 183.878 30.7204V25.6843H186.004L186.087 26.1981C186.548 29.0137 187.255 30.3993 189.266 32.2507C191.033 33.8768 193.358 34.3966 195.676 34.3966C196.468 34.3966 197.253 34.2973 198.018 34.0781C198.7 33.8837 199.349 33.5823 199.923 33.1532C200.459 32.7533 200.895 32.2601 201.224 31.6701C201.567 31.0544 201.705 30.3762 201.705 29.6723C201.705 28.3355 201.321 27.1564 200.456 26.1545C199.372 24.8982 197.792 23.8278 196.396 22.9766L190.132 19.1557C188.388 18.0921 186.484 16.6852 185.331 14.94C184.283 13.3541 183.878 11.5173 183.878 9.61879C183.878 8.26836 184.102 6.93591 184.644 5.70023C185.153 4.53991 185.877 3.53287 186.806 2.69024C187.772 1.81336 188.899 1.18482 190.117 0.761791C191.48 0.287386 192.924 0.101562 194.359 0.101562C195.693 0.101562 197.021 0.253989 198.325 0.533152C199.6 0.804607 200.848 1.2165 202.013 1.81507C203.056 2.35199 204.012 3.04733 204.79 3.94733C205.541 4.81479 205.96 5.83639 205.96 7.00014V12.0362H203.835L203.752 11.5233C203.298 8.74961 202.626 7.35551 200.647 5.52126C198.918 3.9165 196.593 3.42754 194.325 3.42754C193.643 3.42754 192.981 3.53886 192.335 3.76236C191.724 3.97216 191.154 4.28215 190.656 4.70175C190.167 5.11193 189.782 5.61117 189.491 6.18577C189.189 6.78434 189.05 7.42488 189.05 8.10052C189.05 8.71365 189.133 9.33705 189.361 9.90823C189.583 10.464 189.918 10.9589 190.314 11.3974C190.814 11.948 191.4 12.4284 192 12.8548C192.782 13.4106 193.593 13.9304 194.411 14.4288L200.676 18.2514C201.661 18.8534 202.634 19.494 203.555 20.1979C204.326 20.7896 205.046 21.4686 205.633 22.2548C206.166 22.9672 206.588 23.7525 206.871 24.6045C207.17 25.5088 207.284 26.4696 207.284 27.421ZM217.294 20.078H231.376V29.9344C231.376 31.0142 231.408 32.1677 231.589 33.2338C231.719 34.0079 231.97 34.7906 232.445 35.4183C232.892 36.01 233.489 36.3928 234.196 36.5786C234.954 36.779 235.78 36.8338 236.56 36.8338H240.594V34.5542H239.993C239.849 34.5542 239.715 34.5567 239.591 34.559C238.658 34.5763 238.234 34.5842 237.743 33.4753C237.274 32.4151 237.16 31.0844 237.16 29.9344V1.04358H231.376V16.7512H217.294V7.94301C217.294 6.86746 217.258 5.73454 217.082 4.6727C216.952 3.89087 216.705 3.09277 216.227 2.45994C215.777 1.86737 215.181 1.48459 214.474 1.29876C213.716 1.09924 212.891 1.04358 212.11 1.04358H208.078V3.32312H208.677C208.822 3.32312 208.956 3.32062 209.081 3.31828L209.081 3.31828C210.013 3.30089 210.438 3.29297 210.929 4.4021C211.398 5.46137 211.511 6.79211 211.511 7.94301V36.8338H217.294V20.078ZM248.952 30.7259L248.951 30.7273C248.171 32.6366 247.39 34.5463 246.608 36.4561L246.454 36.8338H242.858L257.629 1.04358H259.955L271.311 29.43C271.654 30.2538 272.019 31.0784 272.434 31.8671C272.718 32.4074 273.067 32.9375 273.51 33.3562C273.876 33.7039 274.288 33.9891 274.751 34.18C275.275 34.3958 275.86 34.5029 276.419 34.5568L276.961 34.6108V36.6788L276.531 36.809C275.822 37.0239 275.063 37.095 274.325 37.095C273.619 37.095 272.902 37.0025 272.209 36.8766C271.311 36.713 270.459 36.3534 269.672 35.8884C268.718 35.3249 267.89 34.5388 267.174 33.6876C266.255 32.5967 265.602 31.2317 265.104 29.8915C264.268 27.6343 263.338 25.3882 262.414 23.1572L262.41 23.1465L262.403 23.1314L262.39 23.0989C262.207 22.6579 262.025 22.2176 261.844 21.7778L261.718 21.472C260.221 17.8429 258.724 14.2135 257.251 10.5736C254.448 17.2804 251.701 24.0007 248.952 30.7259ZM284.457 30.3008L284.457 30.3004L284.457 30.3L284.458 30.2997L284.458 30.2993C287.148 23.7164 289.837 17.1391 292.582 10.5728C293.867 13.7439 295.172 16.9053 296.477 20.0677L296.477 20.0686L297.058 21.4764C297.227 21.8855 297.397 22.2951 297.566 22.7051C298.551 25.0857 299.543 27.4808 300.437 29.8915C300.934 31.2317 301.588 32.5967 302.506 33.6876C303.221 34.5388 304.049 35.3249 305.003 35.8884C305.79 36.3534 306.642 36.713 307.54 36.8766C308.233 37.0025 308.95 37.095 309.657 37.095C310.394 37.095 311.154 37.023 311.862 36.809L312.294 36.6788V34.6108L311.751 34.5568C311.193 34.5029 310.606 34.3958 310.085 34.18C309.619 33.9891 309.208 33.7039 308.839 33.3562C308.399 32.9366 308.047 32.4091 307.764 31.8671C307.351 31.0784 306.987 30.2538 306.643 29.4291L295.286 1.04358H292.96L278.189 36.8338H281.785L281.939 36.4561C282.78 34.4039 283.619 32.3521 284.457 30.3008ZM323.613 1.04358C326.62 1.04358 329.721 1.35528 332.603 2.27669C334.945 3.02512 337.193 4.14092 339.057 5.80133C340.788 7.34272 342.08 9.22065 342.939 11.4034C343.857 13.7352 344.231 16.2237 344.231 18.7293C344.231 21.2135 343.858 23.666 342.994 25.9918C342.18 28.1849 340.959 30.1185 339.31 31.7404C337.581 33.4384 335.505 34.6476 333.269 35.4876C330.618 36.4818 327.746 36.8338 324.938 36.8338H314.253V7.94301C314.253 6.79211 314.139 5.46223 313.67 4.40124C313.18 3.29295 312.755 3.30087 311.823 3.31828C311.698 3.32062 311.563 3.32312 311.418 3.32312H310.82V1.04358H323.613ZM320.29 33.2063C321.782 33.5266 323.349 33.768 324.861 33.768C326.582 33.768 328.254 33.4435 329.836 32.7456C331.376 32.0657 332.707 31.0835 333.831 29.8084C335.03 28.4485 335.896 26.86 336.506 25.1414C337.209 23.1581 337.479 21.0422 337.479 18.939C337.479 16.8658 337.207 14.7944 336.529 12.836C335.932 11.1088 335.071 9.51427 333.88 8.14415C332.752 6.84853 331.412 5.8509 329.86 5.15728C328.24 4.43283 326.522 4.10742 324.761 4.10742C323.984 4.10742 323.208 4.18706 322.442 4.31123C321.716 4.42769 320.999 4.59296 320.29 4.7942V33.2063ZM353.058 1.04358H347.274V29.9344C347.274 31.0142 347.306 32.1677 347.487 33.2338C347.617 34.0079 347.868 34.7906 348.343 35.4183C348.79 36.01 349.387 36.3928 350.094 36.5786C350.852 36.779 351.676 36.8338 352.458 36.8338H356.491V34.5542H355.891C355.747 34.5542 355.613 34.5567 355.488 34.559C354.556 34.5763 354.13 34.5842 353.641 33.4753C353.172 32.4143 353.058 31.0853 353.058 29.9344V1.04358Z" fill="#DF4A45"/>
<path d="M249.467 27.1028H264.682V24.6074H249.467V27.1028Z" fill="#DF4A45"/>
<path d="M285 27.1028H300.215V24.6074H285V27.1028Z" fill="#DF4A45"/>
</svg>
