<svg width="370" height="20" viewBox="0 0 370 20" fill="none" xmlns="http://www.w3.org/2000/svg">
<g clip-path="url(#clip0_1712_7561)">
<path d="M146.351 19.798C142.364 19.5752 138.976 18.5423 136.667 16.8454C135.627 16.081 134.366 14.7337 133.742 13.7191C132.83 12.5996 132.151 10.4307 132 9.00049C131.874 7.8134 132.38 6.30636 132.83 5.39239C134.093 2.84319 137.031 0.927361 140.592 0.330806C141.714 0.142861 144.241 0.170646 145.238 0.381912C148.482 1.06854 150.794 2.77716 152.155 5.49346C152.219 5.62151 152.276 5.7458 152.322 5.85717C152.437 6.13547 152.532 6.51756 152.349 6.75674C152.33 6.78221 152.306 6.80751 152.278 6.83262C152.121 6.97159 151.89 6.96396 151.69 6.898C151.469 6.82459 151.287 6.66275 151.189 6.45085L151.106 6.27128C149.963 3.80513 147.889 2.24817 144.911 1.61991C144.113 1.45144 141.613 1.45125 140.741 1.61991C136.69 2.4018 133.788 4.78681 133.446 7.61369C133.333 8.54399 133.555 9.73419 134.06 10.9176C135.356 13.801 139.372 15.6482 142.081 16.1005C143.831 16.3744 146.683 16.333 148.932 16.001C152.884 15.4178 156.001 14.4332 159.606 12.6303C161.337 11.7645 163.787 10.4381 163.961 10.2717C164.009 10.2262 163.957 9.75784 163.844 9.21341C163.732 8.67623 163.613 7.96863 163.579 7.64097C163.501 6.8803 163.749 5.10705 164.023 4.46698C164.551 3.23528 165.826 1.77524 166.933 1.1359C168.746 0.0876923 171.745 -0.246256 174.052 0.342928C175.467 0.704097 177.579 1.65837 178.408 2.31115C178.64 2.49369 178.656 2.49122 179.699 2.11202C180.954 1.65585 182.872 1.11493 184.181 0.848284C186.24 0.428683 187.616 0.302885 190.188 0.299226C192.32 0.296153 192.887 0.329117 194.209 0.532623C197.055 0.970787 199.745 1.91519 201.653 3.14597C202.659 3.79508 203.738 4.62179 204.125 5.04156L204.361 5.2965L206.351 4.3007C208.633 3.15813 209.948 2.6009 211.982 1.9137C215.152 0.842775 218.522 0.26312 221.762 0.231668C224.201 0.197592 225.225 0.311298 229.234 1.28528C231.351 1.8856 233.518 3.05832 235.223 4.52626C236.61 5.74391 237.686 7.69157 237.905 9.29623C238.114 10.9601 237.776 12.3629 236.833 13.7487C235.334 15.9513 232.54 17.5035 229.507 17.818C228.061 17.9679 226.806 17.8073 225.485 17.3037C225.134 17.1695 224.524 16.8052 224.072 16.5088C223.738 16.2894 223.327 15.7676 223.383 15.3719C223.405 15.2195 223.493 15.0884 223.717 15.0312C223.897 14.9851 224.084 15.0507 224.244 15.1458L224.859 15.5374C225.197 15.7528 225.823 16.0523 226.249 16.2029C229.614 17.4017 233.024 16.1057 235.278 13.6047C236.139 12.6285 236.468 12.001 236.615 11.05C236.921 7.89355 235.341 6.11433 233.076 4.94696C231.61 4.19504 230.029 3.71704 228.017 3.41822C226.685 3.22031 226.282 3.20297 224.195 3.25398C219.477 3.36931 216.916 3.97555 212.182 6.09798C210.953 6.64859 209.323 7.44169 208.557 7.86041C207.792 8.27916 206.965 8.73143 206.72 8.86548L206.273 9.1092L206.262 10.1695C206.253 11.0391 206.202 11.3756 205.981 12.0411C204.983 15.0376 201.587 17.4298 197.803 17.8022C196.26 17.954 194.227 17.6194 193.124 17.0324C192.784 16.8516 192.781 16.8519 192.081 17.1461C190.036 18.0053 186.628 18.982 184.23 19.3955C178.851 20.0625 172.806 20.0679 168.344 16.8474C167.584 16.2884 166.399 15.1231 166.052 14.5922L165.887 14.3413L165.576 14.5296C164.668 15.0798 161.913 16.4735 160.698 16.997C158.348 18.0102 155.522 18.8558 152.848 19.3463C150.659 19.7574 148.373 19.911 146.351 19.798ZM199.322 16.2294C202.135 15.3275 204.359 14.0829 204.931 11.0373C204.989 10.6982 205.058 10.3203 205.086 10.1974C205.113 10.0745 205.092 9.97399 205.04 9.97399C204.987 9.97399 203.813 10.6587 202.431 11.4956C199.728 13.1324 197.697 14.3086 195.654 15.4206C194.38 16.114 194.371 16.1212 194.661 16.2327C195.263 16.464 195.785 16.5164 197.138 16.4809C198.161 16.454 198.738 16.3877 199.322 16.2294ZM180.805 15.9935C183.368 15.6074 185.869 14.9474 188.144 14.0567L188.88 13.7685L187.448 12.2932C186.66 11.4818 185.57 10.3511 185.024 9.78043C184.479 9.20979 183.474 8.22966 182.791 7.60237C182.108 6.97509 181.409 6.33209 181.238 6.17349L180.926 5.88511L179.638 6.48725C177.947 7.27808 174.207 9.3736 171.174 11.2308C170.531 11.6408 168.423 12.9216 167.732 13.3499C167.54 13.4673 168.282 14.0158 169.237 14.5817C170.381 15.2593 172.2 15.8596 173.755 16.0728C176.079 16.4342 178.497 16.324 180.805 15.9935ZM192.097 12.2055C194.575 10.9222 195.187 10.5781 199.393 8.10049L203.037 5.95343L202.769 5.73451C202.621 5.6141 201.986 5.25003 201.358 4.92547C199.965 4.20575 198.316 3.71317 196.294 3.41272C195.03 3.22492 194.57 3.20503 192.521 3.2496C189.879 3.3071 188.464 3.47318 186.365 3.97227C185.008 4.29484 182.269 5.1991 182.32 5.30732C182.333 5.33463 183.103 6.0772 184.032 6.95749C185.811 8.76154 187.7 10.679 189.211 12.2577C189.679 12.7492 190.108 13.1513 190.166 13.1513C190.223 13.1513 191.092 12.7257 192.097 12.2055ZM169.039 7.33954C170.459 6.50873 172.87 5.20286 174.397 4.43762L177.173 3.04624L176.829 2.83437C170.852 -0.862802 163.829 3.93641 165.117 9.19945L165.223 9.56675L165.84 9.20844C166.179 9.01136 167.619 8.17037 169.039 7.33954Z" fill="#51505D"/>
</g>
<rect x="242" y="10" width="128" height="2" fill="#51505D"/>
<rect y="10" width="128" height="2" fill="#51505D"/>
<defs>
<clipPath id="clip0_1712_7561">
<rect width="106" height="19.9546" fill="white" transform="translate(132)"/>
</clipPath>
</defs>
</svg>
