<svg width="15" height="14" viewBox="0 0 15 14" fill="none" xmlns="http://www.w3.org/2000/svg">
<path d="M14.142 7C14.142 10.5841 11.1989 13.5 7.55554 13.5C3.91216 13.5 0.969116 10.5841 0.969116 7C0.969116 3.41592 3.91216 0.5 7.55554 0.5C11.1989 0.5 14.142 3.41592 14.142 7Z" stroke="#95959D"/>
<path d="M7.04938 10H8.06173V9H7.04938V10ZM7.55556 4C7.01857 4 6.50359 4.21071 6.12388 4.58579C5.74418 4.96086 5.53086 5.46957 5.53086 6H6.54321C6.54321 5.73478 6.64987 5.48043 6.83972 5.29289C7.02957 5.10536 7.28707 5 7.55556 5C7.82405 5 8.08154 5.10536 8.27139 5.29289C8.46124 5.48043 8.5679 5.73478 8.5679 6C8.5679 7 7.04938 6.875 7.04938 8.5H8.06173C8.06173 7.375 9.58025 7.25 9.58025 6C9.58025 5.46957 9.36693 4.96086 8.98723 4.58579C8.60753 4.21071 8.09254 4 7.55556 4Z" fill="#95959D"/>
</svg>
