<svg width="16" height="16" viewBox="0 0 16 16" fill="none" xmlns="http://www.w3.org/2000/svg">
<circle cx="7.99999" cy="8.00005" r="7.2" stroke="#00BCD5" stroke-width="1.5"/>
<path fill-rule="evenodd" clip-rule="evenodd" d="M7.06127 9.77908C7.06127 9.32747 7.1161 8.96779 7.22578 8.70005C7.33546 8.43231 7.53626 8.1686 7.8282 7.90892C8.12014 7.64924 8.31449 7.43795 8.41127 7.27505C8.50804 7.11214 8.55643 6.94037 8.55643 6.75973C8.55643 6.21456 8.30482 5.94198 7.80159 5.94198C7.56288 5.94198 7.37175 6.01537 7.2282 6.16215C7.08465 6.30892 7.00965 6.51134 7.0032 6.7694H5.59998C5.60643 6.15327 5.80562 5.67102 6.19756 5.32263C6.58949 4.97424 7.12417 4.80005 7.80159 4.80005C8.48546 4.80005 9.0161 4.96537 9.39352 5.29602C9.77095 5.62666 9.95965 6.09359 9.95965 6.69682C9.95965 6.97102 9.89836 7.22989 9.77578 7.47344C9.6532 7.71699 9.43869 7.98714 9.13223 8.28392L8.7403 8.6565C8.49514 8.89198 8.35481 9.16779 8.31933 9.48392L8.29998 9.77908H7.06127ZM6.92094 11.2646C6.92094 11.0484 6.99433 10.8702 7.1411 10.7299C7.28788 10.5896 7.47578 10.5194 7.70481 10.5194C7.93385 10.5194 8.12175 10.5896 8.26852 10.7299C8.4153 10.8702 8.48869 11.0484 8.48869 11.2646C8.48869 11.4775 8.41691 11.6533 8.27336 11.792C8.12981 11.9307 7.9403 12 7.70481 12C7.46933 12 7.27981 11.9307 7.13627 11.792C6.99272 11.6533 6.92094 11.4775 6.92094 11.2646Z" fill="#00BCD5"/>
</svg>
