<svg width="56" height="56" viewBox="0 0 56 56" fill="none" xmlns="http://www.w3.org/2000/svg">
<circle cx="28" cy="28" r="28" fill="#05B766" fill-opacity="0.04"/>
<path fill-rule="evenodd" clip-rule="evenodd" d="M37.9554 21.1497C38.3402 21.5143 38.5559 22.0186 38.5483 22.5427C38.5422 23.0763 38.5485 23.6058 38.5676 24.5231L38.569 24.5921C38.6238 27.3387 38.5924 28.7356 38.3531 30.4277C37.5722 35.9506 34.6265 39.8034 28.3675 41.8766C27.8733 42.0415 27.3365 42.0415 26.8438 41.8771C22.0855 40.2991 19.1914 37.6303 17.7636 33.9801C16.7338 31.3472 16.5521 29.0682 16.6472 24.5162C16.663 23.9467 16.6663 23.4973 16.6663 22.5408C16.6601 22.0164 16.875 21.5146 17.2578 21.1512C17.6324 20.7955 18.1363 20.602 18.6604 20.611C21.8427 20.6804 24.0561 19.9234 25.9812 18.1345C26.8887 17.2889 28.3211 17.2889 29.2263 18.1323C31.1589 19.9199 33.3664 20.6739 36.5503 20.611C37.0724 20.5999 37.5789 20.793 37.9554 21.1497ZM36.5873 22.3606C32.9684 22.4323 30.3199 21.5277 28.0357 19.4148C27.8002 19.1954 27.4096 19.1954 27.1733 19.4156C24.8971 21.5308 22.2403 22.4395 18.6263 22.3607C18.5622 22.3596 18.5026 22.3825 18.4627 22.4203C18.431 22.4505 18.4158 22.4859 18.4163 22.5304C18.4163 23.5132 18.4129 23.974 18.3966 24.5588C18.3065 28.8778 18.4752 30.9954 19.3934 33.3426C20.6282 36.4995 23.1219 38.7991 27.3961 40.2165C27.5309 40.2615 27.6789 40.2615 27.8155 40.216C33.4156 38.361 35.9288 35.0739 36.6203 30.1827C36.8424 28.6122 36.8723 27.2825 36.8194 24.6269L36.818 24.5588C36.7985 23.6245 36.7921 23.0804 36.7985 22.5201C36.799 22.4859 36.7838 22.4503 36.7518 22.4201C36.7117 22.3821 36.6517 22.3592 36.5873 22.3606ZM30.709 26.6296C31.2032 26.1238 32.0166 26.1238 32.5108 26.6296C32.9905 27.1204 32.9905 27.9061 32.5108 28.3969L27.2833 33.746C26.7891 34.2517 25.9757 34.2517 25.4815 33.746L23.1053 31.3146C22.6257 30.8238 22.6257 30.0381 23.1053 29.5472C23.5996 29.0415 24.4129 29.0415 24.9072 29.5472L26.3824 31.0567L30.709 26.6296Z" fill="#05B766"/>
</svg>
