<svg width="328" height="355" viewBox="0 0 328 355" fill="none" xmlns="http://www.w3.org/2000/svg">
<g clip-path="url(#clip0_1_3)">
<rect width="328" height="355" rx="12" fill="#3F2D7F"/>
<path fill-rule="evenodd" clip-rule="evenodd" d="M98.3682 196.446L106.756 214.272L115.069 196.446H117.411L106.454 219.621H105.472L94.5898 196.446H98.3682ZM124.363 219.695H120.812V196.446H124.363V219.695ZM140.158 196.446H131.014V219.621H134.566V209.965H140.158C143.936 209.965 147.034 206.919 147.034 203.205C147.034 199.491 143.936 196.446 140.158 196.446ZM134.566 208.182H138.495C141.367 208.182 143.558 205.954 143.558 203.206C143.558 200.457 141.291 198.229 138.495 198.229H134.566V208.182Z" fill="#C7A462"/>
<path fill-rule="evenodd" clip-rule="evenodd" d="M194.868 219.621H193.205L204.163 196L215.12 219.621H212.853L208.999 211.301H198.722L194.868 219.621ZM160.258 206.77C153.986 205.136 152.777 203.725 153.079 200.976C153.533 198.228 156.555 196.891 159.2 197.337C161.845 197.782 163.356 199.937 163.961 201.422L165.85 200.976C165.85 200.976 164.641 196.297 158.747 196.297C152.852 196.297 150.888 200.308 150.888 202.759C150.888 205.21 152.626 207.216 157.311 208.33C161.996 209.444 164.112 210.707 164.112 213.604C164.112 216.501 161.467 218.878 158.369 218.878C155.195 218.878 152.928 217.244 152.021 213.827L150.056 214.272C150.056 214.272 150.888 219.249 156.782 219.918C162.676 220.586 165.472 217.021 166.001 214.867C166.53 212.49 166.53 208.33 160.258 206.77ZM187.311 207.068H174.087V196.446H171.82V219.621H174.087V208.256H187.311V219.546H189.578V196.446H187.311V207.068ZM199.327 210.038L203.936 200.234L208.546 210.038H199.327ZM218.143 219.621H216.48L227.438 196L238.395 219.621H236.128L232.274 211.301H221.997L218.143 219.621ZM222.601 210.038L227.211 200.234L231.821 210.038H222.601ZM266.733 196.446H269V219.621H266.733V196.446ZM249.428 196.446H242.022V219.621H249.428C255.927 219.621 261.217 214.421 261.217 208.033C261.292 201.571 256.002 196.446 249.428 196.446ZM244.289 218.506H248.672C254.34 218.506 258.874 214.421 258.949 207.958C258.949 201.496 254.34 197.411 248.672 197.411H244.289V218.506Z" fill="white"/>
<path fill-rule="evenodd" clip-rule="evenodd" d="M61.9761 201.453H65.76L71.1911 211.017L76.6217 201.453H80.4068L71.1911 217.681L61.9761 201.453ZM75.3047 201.453L71.1905 208.698L67.0767 201.453H75.3047ZM64.6385 197.16H77.7435L75.9639 200.294H66.4186L64.6385 197.16ZM77.2806 200.294L79.7188 196H62.6629L65.1012 200.294H60L71.1909 220L82.3817 200.294H77.2806V200.294Z" fill="#BEA060"/>
<rect y="230" width="328" height="23" fill="#D0B17A"/>
<path d="M34.1468 238.97V241.01H36.5468V241.94H34.1468V244.07H36.8468V245H33.0068V238.04H36.8468V238.97H34.1468ZM40.611 242.21L42.391 245H41.101L39.911 243.13L38.791 245H37.601L39.381 242.29L37.601 239.49H38.891L40.081 241.36L41.201 239.49H42.391L40.611 242.21ZM44.3812 240.3C44.5745 240.047 44.8379 239.833 45.1712 239.66C45.5045 239.487 45.8812 239.4 46.3012 239.4C46.7812 239.4 47.2179 239.52 47.6112 239.76C48.0112 239.993 48.3245 240.323 48.5512 240.75C48.7779 241.177 48.8912 241.667 48.8912 242.22C48.8912 242.773 48.7779 243.27 48.5512 243.71C48.3245 244.143 48.0112 244.483 47.6112 244.73C47.2179 244.97 46.7812 245.09 46.3012 245.09C45.8812 245.09 45.5079 245.007 45.1812 244.84C44.8545 244.667 44.5879 244.453 44.3812 244.2V247.62H43.2412V239.49H44.3812V240.3ZM47.7312 242.22C47.7312 241.84 47.6512 241.513 47.4912 241.24C47.3379 240.96 47.1312 240.75 46.8712 240.61C46.6179 240.463 46.3445 240.39 46.0512 240.39C45.7645 240.39 45.4912 240.463 45.2312 240.61C44.9779 240.757 44.7712 240.97 44.6112 241.25C44.4579 241.53 44.3812 241.86 44.3812 242.24C44.3812 242.62 44.4579 242.953 44.6112 243.24C44.7712 243.52 44.9779 243.733 45.2312 243.88C45.4912 244.027 45.7645 244.1 46.0512 244.1C46.3445 244.1 46.6179 244.027 46.8712 243.88C47.1312 243.727 47.3379 243.507 47.4912 243.22C47.6512 242.933 47.7312 242.6 47.7312 242.22ZM55.0686 242.11C55.0686 242.317 55.0552 242.503 55.0286 242.67H50.8186C50.8519 243.11 51.0152 243.463 51.3086 243.73C51.6019 243.997 51.9619 244.13 52.3886 244.13C53.0019 244.13 53.4352 243.873 53.6886 243.36H54.9186C54.7519 243.867 54.4486 244.283 54.0086 244.61C53.5752 244.93 53.0352 245.09 52.3886 245.09C51.8619 245.09 51.3886 244.973 50.9686 244.74C50.5552 244.5 50.2286 244.167 49.9886 243.74C49.7552 243.307 49.6386 242.807 49.6386 242.24C49.6386 241.673 49.7519 241.177 49.9786 240.75C50.2119 240.317 50.5352 239.983 50.9486 239.75C51.3686 239.517 51.8486 239.4 52.3886 239.4C52.9086 239.4 53.3719 239.513 53.7786 239.74C54.1852 239.967 54.5019 240.287 54.7286 240.7C54.9552 241.107 55.0686 241.577 55.0686 242.11ZM53.8786 241.75C53.8719 241.33 53.7219 240.993 53.4286 240.74C53.1352 240.487 52.7719 240.36 52.3386 240.36C51.9452 240.36 51.6086 240.487 51.3286 240.74C51.0486 240.987 50.8819 241.323 50.8286 241.75H53.8786ZM57.3304 240.29C57.4971 240.01 57.7171 239.793 57.9904 239.64C58.2704 239.48 58.6004 239.4 58.9804 239.4V240.58H58.6904C58.2438 240.58 57.9038 240.693 57.6704 240.92C57.4438 241.147 57.3304 241.54 57.3304 242.1V245H56.1904V239.49H57.3304V240.29ZM61.3583 240.42V243.47C61.3583 243.677 61.405 243.827 61.4983 243.92C61.5983 244.007 61.765 244.05 61.9983 244.05H62.6983V245H61.7983C61.285 245 60.8917 244.88 60.6183 244.64C60.345 244.4 60.2083 244.01 60.2083 243.47V240.42H59.5583V239.49H60.2083V238.12H61.3583V239.49H62.6983V240.42H61.3583ZM65.9667 241.51C65.9667 240.83 66.1233 240.22 66.4367 239.68C66.7567 239.14 67.1867 238.72 67.7267 238.42C68.2733 238.113 68.87 237.96 69.5167 237.96C70.2567 237.96 70.9133 238.143 71.4867 238.51C72.0667 238.87 72.4867 239.383 72.7467 240.05H71.3767C71.1967 239.683 70.9467 239.41 70.6267 239.23C70.3067 239.05 69.9367 238.96 69.5167 238.96C69.0567 238.96 68.6467 239.063 68.2867 239.27C67.9267 239.477 67.6433 239.773 67.4367 240.16C67.2367 240.547 67.1367 240.997 67.1367 241.51C67.1367 242.023 67.2367 242.473 67.4367 242.86C67.6433 243.247 67.9267 243.547 68.2867 243.76C68.6467 243.967 69.0567 244.07 69.5167 244.07C69.9367 244.07 70.3067 243.98 70.6267 243.8C70.9467 243.62 71.1967 243.347 71.3767 242.98H72.7467C72.4867 243.647 72.0667 244.16 71.4867 244.52C70.9133 244.88 70.2567 245.06 69.5167 245.06C68.8633 245.06 68.2667 244.91 67.7267 244.61C67.1867 244.303 66.7567 243.88 66.4367 243.34C66.1233 242.8 65.9667 242.19 65.9667 241.51ZM76.4711 245.09C75.9511 245.09 75.4811 244.973 75.0611 244.74C74.6411 244.5 74.3111 244.167 74.0711 243.74C73.8311 243.307 73.7111 242.807 73.7111 242.24C73.7111 241.68 73.8344 241.183 74.0811 240.75C74.3277 240.317 74.6644 239.983 75.0911 239.75C75.5177 239.517 75.9944 239.4 76.5211 239.4C77.0477 239.4 77.5244 239.517 77.9511 239.75C78.3777 239.983 78.7144 240.317 78.9611 240.75C79.2077 241.183 79.3311 241.68 79.3311 242.24C79.3311 242.8 79.2044 243.297 78.9511 243.73C78.6977 244.163 78.3511 244.5 77.9111 244.74C77.4777 244.973 76.9977 245.09 76.4711 245.09ZM76.4711 244.1C76.7644 244.1 77.0377 244.03 77.2911 243.89C77.5511 243.75 77.7611 243.54 77.9211 243.26C78.0811 242.98 78.1611 242.64 78.1611 242.24C78.1611 241.84 78.0844 241.503 77.9311 241.23C77.7777 240.95 77.5744 240.74 77.3211 240.6C77.0677 240.46 76.7944 240.39 76.5011 240.39C76.2077 240.39 75.9344 240.46 75.6811 240.6C75.4344 240.74 75.2377 240.95 75.0911 241.23C74.9444 241.503 74.8711 241.84 74.8711 242.24C74.8711 242.833 75.0211 243.293 75.3211 243.62C75.6277 243.94 76.0111 244.1 76.4711 244.1ZM83.238 239.4C83.6713 239.4 84.058 239.49 84.398 239.67C84.7447 239.85 85.0147 240.117 85.208 240.47C85.4013 240.823 85.498 241.25 85.498 241.75V245H84.368V241.92C84.368 241.427 84.2447 241.05 83.998 240.79C83.7513 240.523 83.4147 240.39 82.988 240.39C82.5613 240.39 82.2213 240.523 81.968 240.79C81.7213 241.05 81.598 241.427 81.598 241.92V245H80.458V239.49H81.598V240.12C81.7847 239.893 82.0213 239.717 82.308 239.59C82.6013 239.463 82.9113 239.4 83.238 239.4ZM88.9521 245.09C88.5188 245.09 88.1288 245.013 87.7821 244.86C87.4421 244.7 87.1721 244.487 86.9721 244.22C86.7721 243.947 86.6655 243.643 86.6521 243.31H87.8321C87.8521 243.543 87.9621 243.74 88.1621 243.9C88.3688 244.053 88.6255 244.13 88.9321 244.13C89.2521 244.13 89.4988 244.07 89.6721 243.95C89.8521 243.823 89.9421 243.663 89.9421 243.47C89.9421 243.263 89.8421 243.11 89.6421 243.01C89.4488 242.91 89.1388 242.8 88.7121 242.68C88.2988 242.567 87.9621 242.457 87.7021 242.35C87.4421 242.243 87.2155 242.08 87.0221 241.86C86.8355 241.64 86.7421 241.35 86.7421 240.99C86.7421 240.697 86.8288 240.43 87.0021 240.19C87.1755 239.943 87.4221 239.75 87.7421 239.61C88.0688 239.47 88.4421 239.4 88.8621 239.4C89.4888 239.4 89.9921 239.56 90.3721 239.88C90.7588 240.193 90.9655 240.623 90.9921 241.17H89.8521C89.8321 240.923 89.7321 240.727 89.5521 240.58C89.3721 240.433 89.1288 240.36 88.8221 240.36C88.5221 240.36 88.2921 240.417 88.1321 240.53C87.9721 240.643 87.8921 240.793 87.8921 240.98C87.8921 241.127 87.9455 241.25 88.0521 241.35C88.1588 241.45 88.2888 241.53 88.4421 241.59C88.5955 241.643 88.8221 241.713 89.1221 241.8C89.5221 241.907 89.8488 242.017 90.1021 242.13C90.3621 242.237 90.5855 242.397 90.7721 242.61C90.9588 242.823 91.0555 243.107 91.0621 243.46C91.0621 243.773 90.9755 244.053 90.8021 244.3C90.6288 244.547 90.3821 244.74 90.0621 244.88C89.7488 245.02 89.3788 245.09 88.9521 245.09ZM97.2839 239.49V245H96.1439V244.35C95.9639 244.577 95.7273 244.757 95.4339 244.89C95.1473 245.017 94.8406 245.08 94.5139 245.08C94.0806 245.08 93.6906 244.99 93.3439 244.81C93.0039 244.63 92.7339 244.363 92.5339 244.01C92.3406 243.657 92.2439 243.23 92.2439 242.73V239.49H93.3739V242.56C93.3739 243.053 93.4973 243.433 93.7439 243.7C93.9906 243.96 94.3273 244.09 94.7539 244.09C95.1806 244.09 95.5173 243.96 95.7639 243.7C96.0173 243.433 96.1439 243.053 96.1439 242.56V239.49H97.2839ZM99.9281 237.6V245H98.7881V237.6H99.9281ZM102.755 240.42V243.47C102.755 243.677 102.801 243.827 102.895 243.92C102.995 244.007 103.161 244.05 103.395 244.05H104.095V245H103.195C102.681 245 102.288 244.88 102.015 244.64C101.741 244.4 101.605 244.01 101.605 243.47V240.42H100.955V239.49H101.605V238.12H102.755V239.49H104.095V240.42H102.755ZM104.766 242.22C104.766 241.667 104.879 241.177 105.106 240.75C105.339 240.323 105.652 239.993 106.046 239.76C106.446 239.52 106.886 239.4 107.366 239.4C107.799 239.4 108.176 239.487 108.496 239.66C108.822 239.827 109.082 240.037 109.276 240.29V239.49H110.426V245H109.276V244.18C109.082 244.44 108.819 244.657 108.486 244.83C108.152 245.003 107.772 245.09 107.346 245.09C106.872 245.09 106.439 244.97 106.046 244.73C105.652 244.483 105.339 244.143 105.106 243.71C104.879 243.27 104.766 242.773 104.766 242.22ZM109.276 242.24C109.276 241.86 109.196 241.53 109.036 241.25C108.882 240.97 108.679 240.757 108.426 240.61C108.172 240.463 107.899 240.39 107.606 240.39C107.312 240.39 107.039 240.463 106.786 240.61C106.532 240.75 106.326 240.96 106.166 241.24C106.012 241.513 105.936 241.84 105.936 242.22C105.936 242.6 106.012 242.933 106.166 243.22C106.326 243.507 106.532 243.727 106.786 243.88C107.046 244.027 107.319 244.1 107.606 244.1C107.899 244.1 108.172 244.027 108.426 243.88C108.679 243.733 108.882 243.52 109.036 243.24C109.196 242.953 109.276 242.62 109.276 242.24ZM114.703 239.4C115.136 239.4 115.523 239.49 115.863 239.67C116.21 239.85 116.48 240.117 116.673 240.47C116.866 240.823 116.963 241.25 116.963 241.75V245H115.833V241.92C115.833 241.427 115.71 241.05 115.463 240.79C115.216 240.523 114.88 240.39 114.453 240.39C114.026 240.39 113.686 240.523 113.433 240.79C113.186 241.05 113.063 241.427 113.063 241.92V245H111.923V239.49H113.063V240.12C113.25 239.893 113.486 239.717 113.773 239.59C114.066 239.463 114.376 239.4 114.703 239.4ZM119.747 240.42V243.47C119.747 243.677 119.794 243.827 119.887 243.92C119.987 244.007 120.154 244.05 120.387 244.05H121.087V245H120.187C119.674 245 119.28 244.88 119.007 244.64C118.734 244.4 118.597 244.01 118.597 243.47V240.42H117.947V239.49H118.597V238.12H119.747V239.49H121.087V240.42H119.747ZM126.175 246.13H125.035V236.99H126.175V246.13ZM134.765 243.58H131.855L131.355 245H130.165L132.655 238.04H133.975L136.465 245H135.265L134.765 243.58ZM134.445 242.65L133.315 239.42L132.175 242.65H134.445ZM139.548 245.09C139.115 245.09 138.725 245.013 138.378 244.86C138.038 244.7 137.768 244.487 137.568 244.22C137.368 243.947 137.261 243.643 137.248 243.31H138.428C138.448 243.543 138.558 243.74 138.758 243.9C138.965 244.053 139.221 244.13 139.528 244.13C139.848 244.13 140.095 244.07 140.268 243.95C140.448 243.823 140.538 243.663 140.538 243.47C140.538 243.263 140.438 243.11 140.238 243.01C140.045 242.91 139.735 242.8 139.308 242.68C138.895 242.567 138.558 242.457 138.298 242.35C138.038 242.243 137.811 242.08 137.618 241.86C137.431 241.64 137.338 241.35 137.338 240.99C137.338 240.697 137.425 240.43 137.598 240.19C137.771 239.943 138.018 239.75 138.338 239.61C138.665 239.47 139.038 239.4 139.458 239.4C140.085 239.4 140.588 239.56 140.968 239.88C141.355 240.193 141.561 240.623 141.588 241.17H140.448C140.428 240.923 140.328 240.727 140.148 240.58C139.968 240.433 139.725 240.36 139.418 240.36C139.118 240.36 138.888 240.417 138.728 240.53C138.568 240.643 138.488 240.793 138.488 240.98C138.488 241.127 138.541 241.25 138.648 241.35C138.755 241.45 138.885 241.53 139.038 241.59C139.191 241.643 139.418 241.713 139.718 241.8C140.118 241.907 140.445 242.017 140.698 242.13C140.958 242.237 141.181 242.397 141.368 242.61C141.555 242.823 141.651 243.107 141.658 243.46C141.658 243.773 141.571 244.053 141.398 244.3C141.225 244.547 140.978 244.74 140.658 244.88C140.345 245.02 139.975 245.09 139.548 245.09ZM144.89 245.09C144.456 245.09 144.066 245.013 143.72 244.86C143.38 244.7 143.11 244.487 142.91 244.22C142.71 243.947 142.603 243.643 142.59 243.31H143.77C143.79 243.543 143.9 243.74 144.1 243.9C144.306 244.053 144.563 244.13 144.87 244.13C145.19 244.13 145.436 244.07 145.61 243.95C145.79 243.823 145.88 243.663 145.88 243.47C145.88 243.263 145.78 243.11 145.58 243.01C145.386 242.91 145.076 242.8 144.65 242.68C144.236 242.567 143.9 242.457 143.64 242.35C143.38 242.243 143.153 242.08 142.96 241.86C142.773 241.64 142.68 241.35 142.68 240.99C142.68 240.697 142.766 240.43 142.94 240.19C143.113 239.943 143.36 239.75 143.68 239.61C144.006 239.47 144.38 239.4 144.8 239.4C145.426 239.4 145.93 239.56 146.31 239.88C146.696 240.193 146.903 240.623 146.93 241.17H145.79C145.77 240.923 145.67 240.727 145.49 240.58C145.31 240.433 145.066 240.36 144.76 240.36C144.46 240.36 144.23 240.417 144.07 240.53C143.91 240.643 143.83 240.793 143.83 240.98C143.83 241.127 143.883 241.25 143.99 241.35C144.096 241.45 144.226 241.53 144.38 241.59C144.533 241.643 144.76 241.713 145.06 241.8C145.46 241.907 145.786 242.017 146.04 242.13C146.3 242.237 146.523 242.397 146.71 242.61C146.896 242.823 146.993 243.107 147 243.46C147 243.773 146.913 244.053 146.74 244.3C146.566 244.547 146.32 244.74 146 244.88C145.686 245.02 145.316 245.09 144.89 245.09ZM153.221 239.49V245H152.081V244.35C151.901 244.577 151.665 244.757 151.371 244.89C151.085 245.017 150.778 245.08 150.451 245.08C150.018 245.08 149.628 244.99 149.281 244.81C148.941 244.63 148.671 244.363 148.471 244.01C148.278 243.657 148.181 243.23 148.181 242.73V239.49H149.311V242.56C149.311 243.053 149.435 243.433 149.681 243.7C149.928 243.96 150.265 244.09 150.691 244.09C151.118 244.09 151.455 243.96 151.701 243.7C151.955 243.433 152.081 243.053 152.081 242.56V239.49H153.221ZM155.866 240.29C156.032 240.01 156.252 239.793 156.526 239.64C156.806 239.48 157.136 239.4 157.516 239.4V240.58H157.226C156.779 240.58 156.439 240.693 156.206 240.92C155.979 241.147 155.866 241.54 155.866 242.1V245H154.726V239.49H155.866V240.29ZM163.613 242.11C163.613 242.317 163.6 242.503 163.573 242.67H159.363C159.397 243.11 159.56 243.463 159.853 243.73C160.147 243.997 160.507 244.13 160.933 244.13C161.547 244.13 161.98 243.873 162.233 243.36H163.463C163.297 243.867 162.993 244.283 162.553 244.61C162.12 244.93 161.58 245.09 160.933 245.09C160.407 245.09 159.933 244.973 159.513 244.74C159.1 244.5 158.773 244.167 158.533 243.74C158.3 243.307 158.183 242.807 158.183 242.24C158.183 241.673 158.297 241.177 158.523 240.75C158.757 240.317 159.08 239.983 159.493 239.75C159.913 239.517 160.393 239.4 160.933 239.4C161.453 239.4 161.917 239.513 162.323 239.74C162.73 239.967 163.047 240.287 163.273 240.7C163.5 241.107 163.613 241.577 163.613 242.11ZM162.423 241.75C162.417 241.33 162.267 240.993 161.973 240.74C161.68 240.487 161.317 240.36 160.883 240.36C160.49 240.36 160.153 240.487 159.873 240.74C159.593 240.987 159.427 241.323 159.373 241.75H162.423ZM164.355 242.22C164.355 241.667 164.469 241.177 164.695 240.75C164.929 240.323 165.242 239.993 165.635 239.76C166.035 239.52 166.479 239.4 166.965 239.4C167.325 239.4 167.679 239.48 168.025 239.64C168.379 239.793 168.659 240 168.865 240.26V237.6H170.015V245H168.865V244.17C168.679 244.437 168.419 244.657 168.085 244.83C167.759 245.003 167.382 245.09 166.955 245.09C166.475 245.09 166.035 244.97 165.635 244.73C165.242 244.483 164.929 244.143 164.695 243.71C164.469 243.27 164.355 242.773 164.355 242.22ZM168.865 242.24C168.865 241.86 168.785 241.53 168.625 241.25C168.472 240.97 168.269 240.757 168.015 240.61C167.762 240.463 167.489 240.39 167.195 240.39C166.902 240.39 166.629 240.463 166.375 240.61C166.122 240.75 165.915 240.96 165.755 241.24C165.602 241.513 165.525 241.84 165.525 242.22C165.525 242.6 165.602 242.933 165.755 243.22C165.915 243.507 166.122 243.727 166.375 243.88C166.635 244.027 166.909 244.1 167.195 244.1C167.489 244.1 167.762 244.027 168.015 243.88C168.269 243.733 168.472 243.52 168.625 243.24C168.785 242.953 168.865 242.62 168.865 242.24ZM181.43 238.05V245H180.29V240.24L178.17 245H177.38L175.25 240.24V245H174.11V238.05H175.34L177.78 243.5L180.21 238.05H181.43ZM187.979 242.11C187.979 242.317 187.965 242.503 187.939 242.67H183.729C183.762 243.11 183.925 243.463 184.219 243.73C184.512 243.997 184.872 244.13 185.299 244.13C185.912 244.13 186.345 243.873 186.599 243.36H187.829C187.662 243.867 187.359 244.283 186.919 244.61C186.485 244.93 185.945 245.09 185.299 245.09C184.772 245.09 184.299 244.973 183.879 244.74C183.465 244.5 183.139 244.167 182.899 243.74C182.665 243.307 182.549 242.807 182.549 242.24C182.549 241.673 182.662 241.177 182.889 240.75C183.122 240.317 183.445 239.983 183.859 239.75C184.279 239.517 184.759 239.4 185.299 239.4C185.819 239.4 186.282 239.513 186.689 239.74C187.095 239.967 187.412 240.287 187.639 240.7C187.865 241.107 187.979 241.577 187.979 242.11ZM186.789 241.75C186.782 241.33 186.632 240.993 186.339 240.74C186.045 240.487 185.682 240.36 185.249 240.36C184.855 240.36 184.519 240.487 184.239 240.74C183.959 240.987 183.792 241.323 183.739 241.75H186.789ZM194.151 242.11C194.151 242.317 194.137 242.503 194.111 242.67H189.901C189.934 243.11 190.097 243.463 190.391 243.73C190.684 243.997 191.044 244.13 191.471 244.13C192.084 244.13 192.517 243.873 192.771 243.36H194.001C193.834 243.867 193.531 244.283 193.091 244.61C192.657 244.93 192.117 245.09 191.471 245.09C190.944 245.09 190.471 244.973 190.051 244.74C189.637 244.5 189.311 244.167 189.071 243.74C188.837 243.307 188.721 242.807 188.721 242.24C188.721 241.673 188.834 241.177 189.061 240.75C189.294 240.317 189.617 239.983 190.031 239.75C190.451 239.517 190.931 239.4 191.471 239.4C191.991 239.4 192.454 239.513 192.861 239.74C193.267 239.967 193.584 240.287 193.811 240.7C194.037 241.107 194.151 241.577 194.151 242.11ZM192.961 241.75C192.954 241.33 192.804 240.993 192.511 240.74C192.217 240.487 191.854 240.36 191.421 240.36C191.027 240.36 190.691 240.487 190.411 240.74C190.131 240.987 189.964 241.323 189.911 241.75H192.961ZM196.602 240.42V243.47C196.602 243.677 196.649 243.827 196.742 243.92C196.842 244.007 197.009 244.05 197.242 244.05H197.942V245H197.042C196.529 245 196.136 244.88 195.862 244.64C195.589 244.4 195.452 244.01 195.452 243.47V240.42H194.802V239.49H195.452V238.12H196.602V239.49H197.942V240.42H196.602ZM199.573 238.76C199.366 238.76 199.193 238.69 199.053 238.55C198.913 238.41 198.843 238.237 198.843 238.03C198.843 237.823 198.913 237.65 199.053 237.51C199.193 237.37 199.366 237.3 199.573 237.3C199.773 237.3 199.943 237.37 200.083 237.51C200.223 237.65 200.293 237.823 200.293 238.03C200.293 238.237 200.223 238.41 200.083 238.55C199.943 238.69 199.773 238.76 199.573 238.76ZM200.133 239.49V245H198.993V239.49H200.133ZM204.41 239.4C204.843 239.4 205.23 239.49 205.57 239.67C205.917 239.85 206.187 240.117 206.38 240.47C206.573 240.823 206.67 241.25 206.67 241.75V245H205.54V241.92C205.54 241.427 205.417 241.05 205.17 240.79C204.923 240.523 204.587 240.39 204.16 240.39C203.733 240.39 203.393 240.523 203.14 240.79C202.893 241.05 202.77 241.427 202.77 241.92V245H201.63V239.49H202.77V240.12C202.957 239.893 203.193 239.717 203.48 239.59C203.773 239.463 204.083 239.4 204.41 239.4ZM210.344 239.4C210.771 239.4 211.147 239.487 211.474 239.66C211.807 239.827 212.067 240.037 212.254 240.29V239.49H213.404V245.09C213.404 245.597 213.297 246.047 213.084 246.44C212.871 246.84 212.561 247.153 212.154 247.38C211.754 247.607 211.274 247.72 210.714 247.72C209.967 247.72 209.347 247.543 208.854 247.19C208.361 246.843 208.081 246.37 208.014 245.77H209.144C209.231 246.057 209.414 246.287 209.694 246.46C209.981 246.64 210.321 246.73 210.714 246.73C211.174 246.73 211.544 246.59 211.824 246.31C212.111 246.03 212.254 245.623 212.254 245.09V244.17C212.061 244.43 211.797 244.65 211.464 244.83C211.137 245.003 210.764 245.09 210.344 245.09C209.864 245.09 209.424 244.97 209.024 244.73C208.631 244.483 208.317 244.143 208.084 243.71C207.857 243.27 207.744 242.773 207.744 242.22C207.744 241.667 207.857 241.177 208.084 240.75C208.317 240.323 208.631 239.993 209.024 239.76C209.424 239.52 209.864 239.4 210.344 239.4ZM212.254 242.24C212.254 241.86 212.174 241.53 212.014 241.25C211.861 240.97 211.657 240.757 211.404 240.61C211.151 240.463 210.877 240.39 210.584 240.39C210.291 240.39 210.017 240.463 209.764 240.61C209.511 240.75 209.304 240.96 209.144 241.24C208.991 241.513 208.914 241.84 208.914 242.22C208.914 242.6 208.991 242.933 209.144 243.22C209.304 243.507 209.511 243.727 209.764 243.88C210.024 244.027 210.297 244.1 210.584 244.1C210.877 244.1 211.151 244.027 211.404 243.88C211.657 243.733 211.861 243.52 212.014 243.24C212.174 242.953 212.254 242.62 212.254 242.24ZM216.901 245.09C216.468 245.09 216.078 245.013 215.731 244.86C215.391 244.7 215.121 244.487 214.921 244.22C214.721 243.947 214.615 243.643 214.601 243.31H215.781C215.801 243.543 215.911 243.74 216.111 243.9C216.318 244.053 216.575 244.13 216.881 244.13C217.201 244.13 217.448 244.07 217.621 243.95C217.801 243.823 217.891 243.663 217.891 243.47C217.891 243.263 217.791 243.11 217.591 243.01C217.398 242.91 217.088 242.8 216.661 242.68C216.248 242.567 215.911 242.457 215.651 242.35C215.391 242.243 215.165 242.08 214.971 241.86C214.785 241.64 214.691 241.35 214.691 240.99C214.691 240.697 214.778 240.43 214.951 240.19C215.125 239.943 215.371 239.75 215.691 239.61C216.018 239.47 216.391 239.4 216.811 239.4C217.438 239.4 217.941 239.56 218.321 239.88C218.708 240.193 218.915 240.623 218.941 241.17H217.801C217.781 240.923 217.681 240.727 217.501 240.58C217.321 240.433 217.078 240.36 216.771 240.36C216.471 240.36 216.241 240.417 216.081 240.53C215.921 240.643 215.841 240.793 215.841 240.98C215.841 241.127 215.895 241.25 216.001 241.35C216.108 241.45 216.238 241.53 216.391 241.59C216.545 241.643 216.771 241.713 217.071 241.8C217.471 241.907 217.798 242.017 218.051 242.13C218.311 242.237 218.535 242.397 218.721 242.61C218.908 242.823 219.005 243.107 219.011 243.46C219.011 243.773 218.925 244.053 218.751 244.3C218.578 244.547 218.331 244.74 218.011 244.88C217.698 245.02 217.328 245.09 216.901 245.09ZM224.281 246.13H223.141V236.99H224.281V246.13ZM228.381 238.75V237.71H230.461V245H229.311V238.75H228.381ZM232.027 241.26C232.027 240.107 232.22 239.207 232.607 238.56C233 237.907 233.673 237.58 234.627 237.58C235.58 237.58 236.25 237.907 236.637 238.56C237.03 239.207 237.227 240.107 237.227 241.26C237.227 242.427 237.03 243.34 236.637 244C236.25 244.653 235.58 244.98 234.627 244.98C233.673 244.98 233 244.653 232.607 244C232.22 243.34 232.027 242.427 232.027 241.26ZM236.107 241.26C236.107 240.72 236.07 240.263 235.997 239.89C235.93 239.517 235.79 239.213 235.577 238.98C235.363 238.74 235.047 238.62 234.627 238.62C234.207 238.62 233.89 238.74 233.677 238.98C233.463 239.213 233.32 239.517 233.247 239.89C233.18 240.263 233.147 240.72 233.147 241.26C233.147 241.82 233.18 242.29 233.247 242.67C233.313 243.05 233.453 243.357 233.667 243.59C233.887 243.823 234.207 243.94 234.627 243.94C235.047 243.94 235.363 243.823 235.577 243.59C235.797 243.357 235.94 243.05 236.007 242.67C236.073 242.29 236.107 241.82 236.107 241.26ZM238.433 241.26C238.433 240.107 238.626 239.207 239.013 238.56C239.406 237.907 240.08 237.58 241.033 237.58C241.986 237.58 242.656 237.907 243.043 238.56C243.436 239.207 243.633 240.107 243.633 241.26C243.633 242.427 243.436 243.34 243.043 244C242.656 244.653 241.986 244.98 241.033 244.98C240.08 244.98 239.406 244.653 239.013 244C238.626 243.34 238.433 242.427 238.433 241.26ZM242.513 241.26C242.513 240.72 242.476 240.263 242.403 239.89C242.336 239.517 242.196 239.213 241.983 238.98C241.77 238.74 241.453 238.62 241.033 238.62C240.613 238.62 240.296 238.74 240.083 238.98C239.87 239.213 239.726 239.517 239.653 239.89C239.586 240.263 239.553 240.72 239.553 241.26C239.553 241.82 239.586 242.29 239.653 242.67C239.72 243.05 239.86 243.357 240.073 243.59C240.293 243.823 240.613 243.94 241.033 243.94C241.453 243.94 241.77 243.823 241.983 243.59C242.203 243.357 242.346 243.05 242.413 242.67C242.48 242.29 242.513 241.82 242.513 241.26ZM244.659 239.47C244.659 238.983 244.799 238.603 245.079 238.33C245.366 238.05 245.733 237.91 246.179 237.91C246.626 237.91 246.989 238.05 247.269 238.33C247.556 238.603 247.699 238.983 247.699 239.47C247.699 239.957 247.556 240.34 247.269 240.62C246.989 240.9 246.626 241.04 246.179 241.04C245.733 241.04 245.366 240.9 245.079 240.62C244.799 240.34 244.659 239.957 244.659 239.47ZM250.759 238.04L246.769 245H245.649L249.639 238.04H250.759ZM246.179 238.6C245.759 238.6 245.549 238.89 245.549 239.47C245.549 240.057 245.759 240.35 246.179 240.35C246.379 240.35 246.533 240.28 246.639 240.14C246.753 239.993 246.809 239.77 246.809 239.47C246.809 238.89 246.599 238.6 246.179 238.6ZM248.729 243.56C248.729 243.073 248.869 242.693 249.149 242.42C249.436 242.14 249.803 242 250.249 242C250.689 242 251.049 242.14 251.329 242.42C251.616 242.693 251.759 243.073 251.759 243.56C251.759 244.047 251.616 244.43 251.329 244.71C251.049 244.99 250.689 245.13 250.249 245.13C249.803 245.13 249.436 244.99 249.149 244.71C248.869 244.43 248.729 244.047 248.729 243.56ZM250.239 242.69C249.819 242.69 249.609 242.98 249.609 243.56C249.609 244.14 249.819 244.43 250.239 244.43C250.659 244.43 250.869 244.14 250.869 243.56C250.869 242.98 250.659 242.69 250.239 242.69ZM257.796 238.05C258.536 238.05 259.183 238.193 259.736 238.48C260.296 238.76 260.726 239.167 261.026 239.7C261.333 240.227 261.486 240.843 261.486 241.55C261.486 242.257 261.333 242.87 261.026 243.39C260.726 243.91 260.296 244.31 259.736 244.59C259.183 244.863 258.536 245 257.796 245H255.526V238.05H257.796ZM257.796 244.07C258.61 244.07 259.233 243.85 259.666 243.41C260.1 242.97 260.316 242.35 260.316 241.55C260.316 240.743 260.1 240.113 259.666 239.66C259.233 239.207 258.61 238.98 257.796 238.98H256.666V244.07H257.796ZM263.196 238.76C262.99 238.76 262.816 238.69 262.676 238.55C262.536 238.41 262.466 238.237 262.466 238.03C262.466 237.823 262.536 237.65 262.676 237.51C262.816 237.37 262.99 237.3 263.196 237.3C263.396 237.3 263.566 237.37 263.706 237.51C263.846 237.65 263.916 237.823 263.916 238.03C263.916 238.237 263.846 238.41 263.706 238.55C263.566 238.69 263.396 238.76 263.196 238.76ZM263.756 239.49V245H262.616V239.49H263.756ZM267.253 245.09C266.82 245.09 266.43 245.013 266.083 244.86C265.743 244.7 265.473 244.487 265.273 244.22C265.073 243.947 264.966 243.643 264.953 243.31H266.133C266.153 243.543 266.263 243.74 266.463 243.9C266.67 244.053 266.926 244.13 267.233 244.13C267.553 244.13 267.8 244.07 267.973 243.95C268.153 243.823 268.243 243.663 268.243 243.47C268.243 243.263 268.143 243.11 267.943 243.01C267.75 242.91 267.44 242.8 267.013 242.68C266.6 242.567 266.263 242.457 266.003 242.35C265.743 242.243 265.516 242.08 265.323 241.86C265.136 241.64 265.043 241.35 265.043 240.99C265.043 240.697 265.13 240.43 265.303 240.19C265.476 239.943 265.723 239.75 266.043 239.61C266.37 239.47 266.743 239.4 267.163 239.4C267.79 239.4 268.293 239.56 268.673 239.88C269.06 240.193 269.266 240.623 269.293 241.17H268.153C268.133 240.923 268.033 240.727 267.853 240.58C267.673 240.433 267.43 240.36 267.123 240.36C266.823 240.36 266.593 240.417 266.433 240.53C266.273 240.643 266.193 240.793 266.193 240.98C266.193 241.127 266.246 241.25 266.353 241.35C266.46 241.45 266.59 241.53 266.743 241.59C266.896 241.643 267.123 241.713 267.423 241.8C267.823 241.907 268.15 242.017 268.403 242.13C268.663 242.237 268.886 242.397 269.073 242.61C269.26 242.823 269.356 243.107 269.363 243.46C269.363 243.773 269.276 244.053 269.103 244.3C268.93 244.547 268.683 244.74 268.363 244.88C268.05 245.02 267.68 245.09 267.253 245.09ZM270.215 242.24C270.215 241.673 270.328 241.177 270.555 240.75C270.788 240.317 271.108 239.983 271.515 239.75C271.921 239.517 272.388 239.4 272.915 239.4C273.581 239.4 274.131 239.56 274.565 239.88C275.005 240.193 275.301 240.643 275.455 241.23H274.225C274.125 240.957 273.965 240.743 273.745 240.59C273.525 240.437 273.248 240.36 272.915 240.36C272.448 240.36 272.075 240.527 271.795 240.86C271.521 241.187 271.385 241.647 271.385 242.24C271.385 242.833 271.521 243.297 271.795 243.63C272.075 243.963 272.448 244.13 272.915 244.13C273.575 244.13 274.011 243.84 274.225 243.26H275.455C275.295 243.82 274.995 244.267 274.555 244.6C274.115 244.927 273.568 245.09 272.915 245.09C272.388 245.09 271.921 244.973 271.515 244.74C271.108 244.5 270.788 244.167 270.555 243.74C270.328 243.307 270.215 242.807 270.215 242.24ZM277.731 240.29C277.897 240.01 278.117 239.793 278.391 239.64C278.671 239.48 279.001 239.4 279.381 239.4V240.58H279.091C278.644 240.58 278.304 240.693 278.071 240.92C277.844 241.147 277.731 241.54 277.731 242.1V245H276.591V239.49H277.731V240.29ZM285.479 242.11C285.479 242.317 285.465 242.503 285.439 242.67H281.229C281.262 243.11 281.425 243.463 281.719 243.73C282.012 243.997 282.372 244.13 282.799 244.13C283.412 244.13 283.845 243.873 284.099 243.36H285.329C285.162 243.867 284.859 244.283 284.419 244.61C283.985 244.93 283.445 245.09 282.799 245.09C282.272 245.09 281.799 244.973 281.379 244.74C280.965 244.5 280.639 244.167 280.399 243.74C280.165 243.307 280.049 242.807 280.049 242.24C280.049 241.673 280.162 241.177 280.389 240.75C280.622 240.317 280.945 239.983 281.359 239.75C281.779 239.517 282.259 239.4 282.799 239.4C283.319 239.4 283.782 239.513 284.189 239.74C284.595 239.967 284.912 240.287 285.139 240.7C285.365 241.107 285.479 241.577 285.479 242.11ZM284.289 241.75C284.282 241.33 284.132 240.993 283.839 240.74C283.545 240.487 283.182 240.36 282.749 240.36C282.355 240.36 282.019 240.487 281.739 240.74C281.459 240.987 281.292 241.323 281.239 241.75H284.289ZM291.651 242.11C291.651 242.317 291.637 242.503 291.611 242.67H287.401C287.434 243.11 287.597 243.463 287.891 243.73C288.184 243.997 288.544 244.13 288.971 244.13C289.584 244.13 290.017 243.873 290.271 243.36H291.501C291.334 243.867 291.031 244.283 290.591 244.61C290.157 244.93 289.617 245.09 288.971 245.09C288.444 245.09 287.971 244.973 287.551 244.74C287.137 244.5 286.811 244.167 286.571 243.74C286.337 243.307 286.221 242.807 286.221 242.24C286.221 241.673 286.334 241.177 286.561 240.75C286.794 240.317 287.117 239.983 287.531 239.75C287.951 239.517 288.431 239.4 288.971 239.4C289.491 239.4 289.954 239.513 290.361 239.74C290.767 239.967 291.084 240.287 291.311 240.7C291.537 241.107 291.651 241.577 291.651 242.11ZM290.461 241.75C290.454 241.33 290.304 240.993 290.011 240.74C289.717 240.487 289.354 240.36 288.921 240.36C288.527 240.36 288.191 240.487 287.911 240.74C287.631 240.987 287.464 241.323 287.411 241.75H290.461ZM294.102 240.42V243.47C294.102 243.677 294.149 243.827 294.242 243.92C294.342 244.007 294.509 244.05 294.742 244.05H295.442V245H294.542C294.029 245 293.636 244.88 293.362 244.64C293.089 244.4 292.952 244.01 292.952 243.47V240.42H292.302V239.49H292.952V238.12H294.102V239.49H295.442V240.42H294.102Z" fill="#542D83"/>
<rect x="11" y="11" width="306" height="333" rx="5" stroke="#D0B17A" stroke-width="2"/>
<rect y="46" width="26" height="92" fill="#3F2D7F"/>
<path opacity="0.1" fill-rule="evenodd" clip-rule="evenodd" d="M-29.7699 36.2172H1.06994L45.3345 115.514L89.5959 36.2172H120.445L45.3345 170.768L-29.7699 36.2172ZM78.8619 36.2172L45.3301 96.2834L11.8016 36.2172H78.8619ZM-8.06861 0.617781H98.7402L84.2355 26.6056H6.43922L-8.06861 0.617781ZM94.9659 26.6047L114.839 -9H-24.1718L-4.2992 26.6047H-45.875L45.3333 190L136.542 26.6047H94.9659V26.6047Z" fill="white" fill-opacity="0.6"/>
<rect x="309" y="108" width="19" height="31" fill="#3F2D7F"/>
<path d="M15.434 67.114H21.414V70H11.794V51.852H15.434V67.114ZM32.3516 70.182C30.6529 70.182 29.0929 69.7833 27.6716 68.986C26.2503 68.1887 25.1236 67.088 24.2916 65.684C23.4596 64.2627 23.0436 62.6593 23.0436 60.874C23.0436 59.106 23.4596 57.52 24.2916 56.116C25.1236 54.6947 26.2503 53.5853 27.6716 52.788C29.0929 51.9907 30.6529 51.592 32.3516 51.592C34.0676 51.592 35.6276 51.9907 37.0316 52.788C38.4529 53.5853 39.5709 54.6947 40.3856 56.116C41.2176 57.52 41.6336 59.106 41.6336 60.874C41.6336 62.6593 41.2176 64.2627 40.3856 65.684C39.5709 67.088 38.4529 68.1887 37.0316 68.986C35.6103 69.7833 34.0503 70.182 32.3516 70.182ZM32.3516 66.932C33.4436 66.932 34.4056 66.6893 35.2376 66.204C36.0696 65.7013 36.7196 64.9907 37.1876 64.072C37.6556 63.1533 37.8896 62.0873 37.8896 60.874C37.8896 59.6607 37.6556 58.6033 37.1876 57.702C36.7196 56.7833 36.0696 56.0813 35.2376 55.596C34.4056 55.1107 33.4436 54.868 32.3516 54.868C31.2596 54.868 30.2889 55.1107 29.4396 55.596C28.6076 56.0813 27.9576 56.7833 27.4896 57.702C27.0216 58.6033 26.7876 59.6607 26.7876 60.874C26.7876 62.0873 27.0216 63.1533 27.4896 64.072C27.9576 64.9907 28.6076 65.7013 29.4396 66.204C30.2889 66.6893 31.2596 66.932 32.3516 66.932ZM52.9657 70.182C51.267 70.182 49.707 69.7833 48.2857 68.986C46.8643 68.1887 45.7377 67.088 44.9057 65.684C44.0737 64.2627 43.6577 62.6593 43.6577 60.874C43.6577 59.106 44.0737 57.52 44.9057 56.116C45.7377 54.6947 46.8643 53.5853 48.2857 52.788C49.707 51.9907 51.267 51.592 52.9657 51.592C54.6817 51.592 56.2417 51.9907 57.6457 52.788C59.067 53.5853 60.185 54.6947 60.9997 56.116C61.8317 57.52 62.2477 59.106 62.2477 60.874C62.2477 62.6593 61.8317 64.2627 60.9997 65.684C60.185 67.088 59.067 68.1887 57.6457 68.986C56.2243 69.7833 54.6643 70.182 52.9657 70.182ZM52.9657 66.932C54.0577 66.932 55.0197 66.6893 55.8517 66.204C56.6837 65.7013 57.3337 64.9907 57.8017 64.072C58.2697 63.1533 58.5037 62.0873 58.5037 60.874C58.5037 59.6607 58.2697 58.6033 57.8017 57.702C57.3337 56.7833 56.6837 56.0813 55.8517 55.596C55.0197 55.1107 54.0577 54.868 52.9657 54.868C51.8737 54.868 50.903 55.1107 50.0537 55.596C49.2217 56.0813 48.5717 56.7833 48.1037 57.702C47.6357 58.6033 47.4017 59.6607 47.4017 60.874C47.4017 62.0873 47.6357 63.1533 48.1037 64.072C48.5717 64.9907 49.2217 65.7013 50.0537 66.204C50.903 66.6893 51.8737 66.932 52.9657 66.932ZM75.3997 70L68.7957 61.914V70H65.1557V51.852H68.7957V59.99L75.3997 51.852H79.7937L72.3057 60.848L80.0017 70H75.3997ZM86.236 51.852V70H82.596V51.852H86.236ZM105.554 70H101.914L93.6723 57.546V70H90.0323V51.826H93.6723L101.914 64.306V51.826H105.554V70ZM121.987 57.312C121.571 56.5493 120.999 55.9687 120.271 55.57C119.543 55.1713 118.694 54.972 117.723 54.972C116.649 54.972 115.695 55.2147 114.863 55.7C114.031 56.1853 113.381 56.8787 112.913 57.78C112.445 58.6813 112.211 59.7213 112.211 60.9C112.211 62.1133 112.445 63.1707 112.913 64.072C113.399 64.9733 114.066 65.6667 114.915 66.152C115.765 66.6373 116.753 66.88 117.879 66.88C119.266 66.88 120.401 66.516 121.285 65.788C122.169 65.0427 122.75 64.0113 123.027 62.694H116.787V59.912H126.615V63.084C126.373 64.3493 125.853 65.5193 125.055 66.594C124.258 67.6687 123.227 68.5353 121.961 69.194C120.713 69.8353 119.309 70.156 117.749 70.156C115.999 70.156 114.413 69.766 112.991 68.986C111.587 68.1887 110.478 67.088 109.663 65.684C108.866 64.28 108.467 62.6853 108.467 60.9C108.467 59.1147 108.866 57.52 109.663 56.116C110.478 54.6947 111.587 53.594 112.991 52.814C114.413 52.0167 115.99 51.618 117.723 51.618C119.769 51.618 121.545 52.1207 123.053 53.126C124.561 54.114 125.601 55.5093 126.173 57.312H121.987ZM147.11 51.852V54.79H139.544V59.444H145.342V62.33H139.544V70H135.904V51.852H147.11ZM158.315 70.182C156.616 70.182 155.056 69.7833 153.635 68.986C152.214 68.1887 151.087 67.088 150.255 65.684C149.423 64.2627 149.007 62.6593 149.007 60.874C149.007 59.106 149.423 57.52 150.255 56.116C151.087 54.6947 152.214 53.5853 153.635 52.788C155.056 51.9907 156.616 51.592 158.315 51.592C160.031 51.592 161.591 51.9907 162.995 52.788C164.416 53.5853 165.534 54.6947 166.349 56.116C167.181 57.52 167.597 59.106 167.597 60.874C167.597 62.6593 167.181 64.2627 166.349 65.684C165.534 67.088 164.416 68.1887 162.995 68.986C161.574 69.7833 160.014 70.182 158.315 70.182ZM158.315 66.932C159.407 66.932 160.369 66.6893 161.201 66.204C162.033 65.7013 162.683 64.9907 163.151 64.072C163.619 63.1533 163.853 62.0873 163.853 60.874C163.853 59.6607 163.619 58.6033 163.151 57.702C162.683 56.7833 162.033 56.0813 161.201 55.596C160.369 55.1107 159.407 54.868 158.315 54.868C157.223 54.868 156.252 55.1107 155.403 55.596C154.571 56.0813 153.921 56.7833 153.453 57.702C152.985 58.6033 152.751 59.6607 152.751 60.874C152.751 62.0873 152.985 63.1533 153.453 64.072C153.921 64.9907 154.571 65.7013 155.403 66.204C156.252 66.6893 157.223 66.932 158.315 66.932ZM179.865 70L175.861 62.928H174.145V70H170.505V51.852H177.317C178.721 51.852 179.917 52.1033 180.905 52.606C181.893 53.0913 182.63 53.7587 183.115 54.608C183.618 55.44 183.869 56.376 183.869 57.416C183.869 58.612 183.522 59.6953 182.829 60.666C182.136 61.6193 181.104 62.278 179.735 62.642L184.077 70H179.865ZM174.145 60.198H177.187C178.175 60.198 178.912 59.964 179.397 59.496C179.882 59.0107 180.125 58.3433 180.125 57.494C180.125 56.662 179.882 56.0207 179.397 55.57C178.912 55.102 178.175 54.868 177.187 54.868H174.145V60.198ZM18.06 102.182C16.7947 102.182 15.6507 101.965 14.628 101.532C13.6227 101.099 12.8253 100.475 12.236 99.66C11.6467 98.8453 11.3433 97.8833 11.326 96.774H15.226C15.278 97.5193 15.538 98.1087 16.006 98.542C16.4913 98.9753 17.15 99.192 17.982 99.192C18.8313 99.192 19.4987 98.9927 19.984 98.594C20.4693 98.178 20.712 97.6407 20.712 96.982C20.712 96.4447 20.5473 96.0027 20.218 95.656C19.8887 95.3093 19.4727 95.0407 18.97 94.85C18.4847 94.642 17.8087 94.4167 16.942 94.174C15.7633 93.8273 14.8013 93.4893 14.056 93.16C13.328 92.8133 12.6953 92.302 12.158 91.626C11.638 90.9327 11.378 90.014 11.378 88.87C11.378 87.7953 11.6467 86.8593 12.184 86.062C12.7213 85.2647 13.4753 84.658 14.446 84.242C15.4167 83.8087 16.526 83.592 17.774 83.592C19.646 83.592 21.1627 84.0513 22.324 84.97C23.5027 85.8713 24.1527 87.1367 24.274 88.766H20.27C20.2353 88.142 19.9667 87.6307 19.464 87.232C18.9787 86.816 18.3287 86.608 17.514 86.608C16.8033 86.608 16.2313 86.79 15.798 87.154C15.382 87.518 15.174 88.0467 15.174 88.74C15.174 89.2253 15.33 89.6327 15.642 89.962C15.9713 90.274 16.37 90.534 16.838 90.742C17.3233 90.9327 17.9993 91.158 18.866 91.418C20.0447 91.7647 21.0067 92.1113 21.752 92.458C22.4973 92.8047 23.1387 93.3247 23.676 94.018C24.2133 94.7113 24.482 95.6213 24.482 96.748C24.482 97.7187 24.2307 98.62 23.728 99.452C23.2253 100.284 22.4887 100.951 21.518 101.454C20.5473 101.939 19.3947 102.182 18.06 102.182ZM36.2618 102.182C34.5631 102.182 33.0031 101.783 31.5818 100.986C30.1604 100.189 29.0338 99.088 28.2018 97.684C27.3698 96.2627 26.9538 94.6593 26.9538 92.874C26.9538 91.106 27.3698 89.52 28.2018 88.116C29.0338 86.6947 30.1604 85.5853 31.5818 84.788C33.0031 83.9907 34.5631 83.592 36.2618 83.592C37.9778 83.592 39.5378 83.9907 40.9418 84.788C42.3631 85.5853 43.4811 86.6947 44.2958 88.116C45.1278 89.52 45.5438 91.106 45.5438 92.874C45.5438 94.6593 45.1278 96.2627 44.2958 97.684C43.4811 99.088 42.3631 100.189 40.9418 100.986C39.5204 101.783 37.9604 102.182 36.2618 102.182ZM36.2618 98.932C37.3538 98.932 38.3158 98.6893 39.1478 98.204C39.9798 97.7013 40.6298 96.9907 41.0978 96.072C41.5658 95.1533 41.7998 94.0873 41.7998 92.874C41.7998 91.6607 41.5658 90.6033 41.0978 89.702C40.6298 88.7833 39.9798 88.0813 39.1478 87.596C38.3158 87.1107 37.3538 86.868 36.2618 86.868C35.1698 86.868 34.1991 87.1107 33.3498 87.596C32.5178 88.0813 31.8678 88.7833 31.3998 89.702C30.9318 90.6033 30.6978 91.6607 30.6978 92.874C30.6978 94.0873 30.9318 95.1533 31.3998 96.072C31.8678 96.9907 32.5178 97.7013 33.3498 98.204C34.1991 98.6893 35.1698 98.932 36.2618 98.932ZM68.2378 83.852V102H64.5978V90.196L59.7358 102H56.9798L52.0918 90.196V102H48.4518V83.852H52.5858L58.3578 97.346L64.1298 83.852H68.2378ZM75.6766 86.79V91.34H81.7866V94.226H75.6766V99.036H82.5666V102H72.0366V83.826H82.5666V86.79H75.6766ZM98.4245 83.852V86.79H93.5885V102H89.9485V86.79H85.1125V83.852H98.4245ZM116.334 83.852V102H112.694V94.278H104.92V102H101.28V83.852H104.92V91.314H112.694V83.852H116.334ZM123.757 83.852V102H120.117V83.852H123.757ZM143.075 102H139.435L131.193 89.546V102H127.553V83.826H131.193L139.435 96.306V83.826H143.075V102ZM159.509 89.312C159.093 88.5493 158.521 87.9687 157.793 87.57C157.065 87.1713 156.215 86.972 155.245 86.972C154.17 86.972 153.217 87.2147 152.385 87.7C151.553 88.1853 150.903 88.8787 150.435 89.78C149.967 90.6813 149.733 91.7213 149.733 92.9C149.733 94.1133 149.967 95.1707 150.435 96.072C150.92 96.9733 151.587 97.6667 152.437 98.152C153.286 98.6373 154.274 98.88 155.401 98.88C156.787 98.88 157.923 98.516 158.807 97.788C159.691 97.0427 160.271 96.0113 160.549 94.694H154.309V91.912H164.137V95.084C163.894 96.3493 163.374 97.5193 162.577 98.594C161.779 99.6687 160.748 100.535 159.483 101.194C158.235 101.835 156.831 102.156 155.271 102.156C153.52 102.156 151.934 101.766 150.513 100.986C149.109 100.189 147.999 99.088 147.185 97.684C146.387 96.28 145.989 94.6853 145.989 92.9C145.989 91.1147 146.387 89.52 147.185 88.116C147.999 86.6947 149.109 85.594 150.513 84.814C151.934 84.0167 153.511 83.618 155.245 83.618C157.29 83.618 159.067 84.1207 160.575 85.126C162.083 86.114 163.123 87.5093 163.695 89.312H159.509Z" fill="white"/>
<path d="M15.434 118.79V123.34H21.544V126.226H15.434V131.036H22.324V134H11.794V115.826H22.324V118.79H15.434ZM36.6999 134L32.7739 127.89L29.2119 134H25.1039L30.8239 124.848L25.0259 115.852H29.2119L33.1379 121.936L36.6739 115.852H40.7819L35.0879 124.978L40.8859 134H36.6999ZM42.9721 124.9C42.9721 123.115 43.3708 121.52 44.1681 120.116C44.9828 118.695 46.0834 117.594 47.4701 116.814C48.8741 116.017 50.4428 115.618 52.1761 115.618C54.2041 115.618 55.9808 116.138 57.5061 117.178C59.0314 118.218 60.0974 119.657 60.7041 121.494H56.5181C56.1021 120.627 55.5128 119.977 54.7501 119.544C54.0048 119.111 53.1381 118.894 52.1501 118.894C51.0928 118.894 50.1481 119.145 49.3161 119.648C48.5014 120.133 47.8601 120.827 47.3921 121.728C46.9414 122.629 46.7161 123.687 46.7161 124.9C46.7161 126.096 46.9414 127.153 47.3921 128.072C47.8601 128.973 48.5014 129.675 49.3161 130.178C50.1481 130.663 51.0928 130.906 52.1501 130.906C53.1381 130.906 54.0048 130.689 54.7501 130.256C55.5128 129.805 56.1021 129.147 56.5181 128.28H60.7041C60.0974 130.135 59.0314 131.582 57.5061 132.622C55.9981 133.645 54.2214 134.156 52.1761 134.156C50.4428 134.156 48.8741 133.766 47.4701 132.986C46.0834 132.189 44.9828 131.088 44.1681 129.684C43.3708 128.28 42.9721 126.685 42.9721 124.9ZM67.6531 131.114H73.6331V134H64.0131V115.852H67.6531V131.114ZM79.7347 115.852V127.084C79.7347 128.315 80.0554 129.259 80.6967 129.918C81.3381 130.559 82.2394 130.88 83.4007 130.88C84.5794 130.88 85.4894 130.559 86.1307 129.918C86.7721 129.259 87.0927 128.315 87.0927 127.084V115.852H90.7587V127.058C90.7587 128.601 90.4207 129.909 89.7447 130.984C89.0861 132.041 88.1934 132.839 87.0667 133.376C85.9574 133.913 84.7181 134.182 83.3487 134.182C81.9967 134.182 80.7661 133.913 79.6567 133.376C78.5647 132.839 77.6981 132.041 77.0567 130.984C76.4154 129.909 76.0947 128.601 76.0947 127.058V115.852H79.7347ZM100.742 134.182C99.4763 134.182 98.3323 133.965 97.3096 133.532C96.3043 133.099 95.507 132.475 94.9176 131.66C94.3283 130.845 94.025 129.883 94.0076 128.774H97.9076C97.9596 129.519 98.2196 130.109 98.6876 130.542C99.173 130.975 99.8316 131.192 100.664 131.192C101.513 131.192 102.18 130.993 102.666 130.594C103.151 130.178 103.394 129.641 103.394 128.982C103.394 128.445 103.229 128.003 102.9 127.656C102.57 127.309 102.154 127.041 101.652 126.85C101.166 126.642 100.49 126.417 99.6236 126.174C98.445 125.827 97.483 125.489 96.7376 125.16C96.0096 124.813 95.377 124.302 94.8396 123.626C94.3196 122.933 94.0596 122.014 94.0596 120.87C94.0596 119.795 94.3283 118.859 94.8656 118.062C95.403 117.265 96.157 116.658 97.1276 116.242C98.0983 115.809 99.2076 115.592 100.456 115.592C102.328 115.592 103.844 116.051 105.006 116.97C106.184 117.871 106.834 119.137 106.956 120.766H102.952C102.917 120.142 102.648 119.631 102.146 119.232C101.66 118.816 101.01 118.608 100.196 118.608C99.485 118.608 98.913 118.79 98.4796 119.154C98.0636 119.518 97.8556 120.047 97.8556 120.74C97.8556 121.225 98.0116 121.633 98.3236 121.962C98.653 122.274 99.0516 122.534 99.5196 122.742C100.005 122.933 100.681 123.158 101.548 123.418C102.726 123.765 103.688 124.111 104.434 124.458C105.179 124.805 105.82 125.325 106.358 126.018C106.895 126.711 107.164 127.621 107.164 128.748C107.164 129.719 106.912 130.62 106.41 131.452C105.907 132.284 105.17 132.951 104.2 133.454C103.229 133.939 102.076 134.182 100.742 134.182ZM114.159 115.852V134H110.519V115.852H114.159ZM134.258 115.852L127.602 134H123.182L116.526 115.852H120.426L125.418 130.282L130.384 115.852H134.258ZM140.28 118.79V123.34H146.39V126.226H140.28V131.036H147.17V134H136.64V115.826H147.17V118.79H140.28ZM171.035 134L169.059 132.05C167.378 133.558 165.324 134.312 162.897 134.312C161.563 134.312 160.384 134.087 159.361 133.636C158.356 133.168 157.576 132.518 157.021 131.686C156.467 130.837 156.189 129.857 156.189 128.748C156.189 127.552 156.527 126.477 157.203 125.524C157.879 124.571 158.876 123.799 160.193 123.21C159.725 122.638 159.387 122.092 159.179 121.572C158.971 121.035 158.867 120.463 158.867 119.856C158.867 119.024 159.084 118.279 159.517 117.62C159.951 116.944 160.566 116.415 161.363 116.034C162.178 115.653 163.123 115.462 164.197 115.462C165.289 115.462 166.225 115.67 167.005 116.086C167.785 116.502 168.366 117.057 168.747 117.75C169.129 118.443 169.293 119.215 169.241 120.064H165.705C165.723 119.492 165.584 119.059 165.289 118.764C164.995 118.452 164.596 118.296 164.093 118.296C163.608 118.296 163.201 118.443 162.871 118.738C162.559 119.015 162.403 119.379 162.403 119.83C162.403 120.263 162.533 120.697 162.793 121.13C163.053 121.546 163.478 122.066 164.067 122.69L168.643 127.214C168.678 127.179 168.704 127.145 168.721 127.11C168.739 127.075 168.756 127.041 168.773 127.006L170.255 124.536H174.051L172.231 127.734C171.885 128.41 171.512 129.051 171.113 129.658L175.507 134H171.035ZM163.001 131.296C164.423 131.296 165.679 130.793 166.771 129.788L162.299 125.368C160.618 126.113 159.777 127.171 159.777 128.54C159.777 129.32 160.072 129.979 160.661 130.516C161.251 131.036 162.031 131.296 163.001 131.296ZM190.249 115.852C192.156 115.852 193.828 116.225 195.267 116.97C196.723 117.715 197.841 118.781 198.621 120.168C199.418 121.537 199.817 123.132 199.817 124.952C199.817 126.772 199.418 128.367 198.621 129.736C197.841 131.088 196.723 132.137 195.267 132.882C193.828 133.627 192.156 134 190.249 134H183.905V115.852H190.249ZM190.119 130.906C192.026 130.906 193.499 130.386 194.539 129.346C195.579 128.306 196.099 126.841 196.099 124.952C196.099 123.063 195.579 121.589 194.539 120.532C193.499 119.457 192.026 118.92 190.119 118.92H187.545V130.906H190.119ZM206.382 115.852V134H202.742V115.852H206.382ZM216.444 134.182C215.179 134.182 214.035 133.965 213.012 133.532C212.007 133.099 211.209 132.475 210.62 131.66C210.031 130.845 209.727 129.883 209.71 128.774H213.61C213.662 129.519 213.922 130.109 214.39 130.542C214.875 130.975 215.534 131.192 216.366 131.192C217.215 131.192 217.883 130.993 218.368 130.594C218.853 130.178 219.096 129.641 219.096 128.982C219.096 128.445 218.931 128.003 218.602 127.656C218.273 127.309 217.857 127.041 217.354 126.85C216.869 126.642 216.193 126.417 215.326 126.174C214.147 125.827 213.185 125.489 212.44 125.16C211.712 124.813 211.079 124.302 210.542 123.626C210.022 122.933 209.762 122.014 209.762 120.87C209.762 119.795 210.031 118.859 210.568 118.062C211.105 117.265 211.859 116.658 212.83 116.242C213.801 115.809 214.91 115.592 216.158 115.592C218.03 115.592 219.547 116.051 220.708 116.97C221.887 117.871 222.537 119.137 222.658 120.766H218.654C218.619 120.142 218.351 119.631 217.848 119.232C217.363 118.816 216.713 118.608 215.898 118.608C215.187 118.608 214.615 118.79 214.182 119.154C213.766 119.518 213.558 120.047 213.558 120.74C213.558 121.225 213.714 121.633 214.026 121.962C214.355 122.274 214.754 122.534 215.222 122.742C215.707 122.933 216.383 123.158 217.25 123.418C218.429 123.765 219.391 124.111 220.136 124.458C220.881 124.805 221.523 125.325 222.06 126.018C222.597 126.711 222.866 127.621 222.866 128.748C222.866 129.719 222.615 130.62 222.112 131.452C221.609 132.284 220.873 132.951 219.902 133.454C218.931 133.939 217.779 134.182 216.444 134.182ZM225.338 124.9C225.338 123.115 225.736 121.52 226.534 120.116C227.348 118.695 228.449 117.594 229.836 116.814C231.24 116.017 232.808 115.618 234.542 115.618C236.57 115.618 238.346 116.138 239.872 117.178C241.397 118.218 242.463 119.657 243.07 121.494H238.884C238.468 120.627 237.878 119.977 237.116 119.544C236.37 119.111 235.504 118.894 234.516 118.894C233.458 118.894 232.514 119.145 231.682 119.648C230.867 120.133 230.226 120.827 229.758 121.728C229.307 122.629 229.082 123.687 229.082 124.9C229.082 126.096 229.307 127.153 229.758 128.072C230.226 128.973 230.867 129.675 231.682 130.178C232.514 130.663 233.458 130.906 234.516 130.906C235.504 130.906 236.37 130.689 237.116 130.256C237.878 129.805 238.468 129.147 238.884 128.28H243.07C242.463 130.135 241.397 131.582 239.872 132.622C238.364 133.645 236.587 134.156 234.542 134.156C232.808 134.156 231.24 133.766 229.836 132.986C228.449 132.189 227.348 131.088 226.534 129.684C225.736 128.28 225.338 126.685 225.338 124.9ZM255.739 134L251.735 126.928H250.019V134H246.379V115.852H253.191C254.595 115.852 255.791 116.103 256.779 116.606C257.767 117.091 258.503 117.759 258.989 118.608C259.491 119.44 259.743 120.376 259.743 121.416C259.743 122.612 259.396 123.695 258.703 124.666C258.009 125.619 256.978 126.278 255.609 126.642L259.951 134H255.739ZM250.019 124.198H253.061C254.049 124.198 254.785 123.964 255.271 123.496C255.756 123.011 255.999 122.343 255.999 121.494C255.999 120.662 255.756 120.021 255.271 119.57C254.785 119.102 254.049 118.868 253.061 118.868H250.019V124.198ZM266.875 118.79V123.34H272.985V126.226H266.875V131.036H273.765V134H263.235V115.826H273.765V118.79H266.875ZM280.913 118.79V123.34H287.023V126.226H280.913V131.036H287.803V134H277.273V115.826H287.803V118.79H280.913ZM303.661 115.852V118.79H298.825V134H295.185V118.79H290.349V115.852H303.661ZM311.587 115.228C313.389 115.228 314.837 115.722 315.929 116.71C317.038 117.681 317.593 119.024 317.593 120.74C317.593 122.439 317.047 123.739 315.955 124.64C314.863 125.524 313.415 125.966 311.613 125.966L311.509 127.968H308.311L308.181 123.548H309.351C310.859 123.548 312.02 123.349 312.835 122.95C313.649 122.551 314.057 121.823 314.057 120.766C314.057 120.003 313.831 119.397 313.381 118.946C312.947 118.495 312.349 118.27 311.587 118.27C310.789 118.27 310.165 118.487 309.715 118.92C309.281 119.353 309.065 119.951 309.065 120.714H305.633C305.615 119.657 305.841 118.712 306.309 117.88C306.777 117.048 307.461 116.398 308.363 115.93C309.281 115.462 310.356 115.228 311.587 115.228ZM309.897 134.182C309.238 134.182 308.692 133.983 308.259 133.584C307.843 133.168 307.635 132.657 307.635 132.05C307.635 131.443 307.843 130.941 308.259 130.542C308.692 130.126 309.238 129.918 309.897 129.918C310.538 129.918 311.067 130.126 311.483 130.542C311.899 130.941 312.107 131.443 312.107 132.05C312.107 132.657 311.899 133.168 311.483 133.584C311.067 133.983 310.538 134.182 309.897 134.182Z" fill="#CDB681"/>
</g>
<defs>
<clipPath id="clip0_1_3">
<rect width="328" height="355" rx="12" fill="white"/>
</clipPath>
</defs>
</svg>
